<svg xmlns="http://www.w3.org/2000/svg" xmlns:xlink="http://www.w3.org/1999/xlink" width="1080" zoomAndPan="magnify" viewBox="0 0 810 809.999993" height="1080" preserveAspectRatio="xMidYMid meet" version="1.0"><defs><clipPath id="c3a086a5c7"><path d="M 138 0 L 674.507812 0 L 674.507812 782 L 138 782 Z M 138 0 " clip-rule="nonzero"/></clipPath></defs><g clip-path="url(#c3a086a5c7)"><path fill="#a87c5e" d="M 146.984375 68.082031 C 150.296875 76.019531 154.335938 83.597656 158.5625 91.066406 C 165.582031 103.484375 171.074219 116.546875 175.765625 129.996094 C 180.75 144.269531 184.636719 158.839844 188.257812 173.5 C 190.738281 183.558594 193.359375 193.597656 197.757812 203.042969 C 200.304688 208.507812 203.082031 213.855469 207.71875 217.925781 C 208.753906 218.835938 208.378906 219.605469 207.785156 220.492188 C 205.53125 223.855469 203.390625 227.28125 201.449219 230.839844 C 193.621094 245.203125 188.914062 260.621094 185.886719 276.609375 C 185.371094 279.320312 184.949219 282.054688 184.582031 284.789062 C 184.195312 287.648438 183.441406 290.328125 182.015625 292.894531 C 174.820312 305.851562 171.101562 319.886719 169.207031 334.5 C 168.308594 341.46875 168.011719 348.441406 168.070312 355.453125 C 168.164062 366.589844 171.316406 376.832031 176.878906 386.402344 C 177.273438 387.085938 177.632812 387.800781 178.113281 388.417969 C 179.128906 389.730469 179.132812 391.019531 178.550781 392.558594 C 174.054688 404.421875 171.496094 416.789062 169.28125 429.230469 C 166.71875 443.601562 164.683594 458.058594 162.96875 472.554688 C 162.011719 480.675781 161.371094 488.835938 160.875 497.007812 C 160.46875 503.714844 160.367188 510.414062 160.433594 517.117188 C 160.753906 549.90625 168.484375 580.785156 184.46875 609.5 C 191.527344 622.171875 200.171875 633.644531 210.832031 643.527344 C 217.957031 650.132812 225.867188 655.691406 234.378906 660.359375 C 243.925781 665.59375 253.835938 669.980469 264.429688 672.703125 C 267.015625 673.371094 267.195312 673.742188 266.75 676.496094 C 264.753906 688.867188 263.429688 701.316406 262.195312 713.777344 C 261.332031 722.511719 260.109375 731.207031 258.683594 739.867188 C 258.351562 741.882812 257.421875 742.933594 255.398438 743.460938 C 252.222656 744.285156 249.300781 745.734375 246.976562 748.171875 C 243.960938 751.339844 243.132812 755.007812 244.601562 759.097656 C 246.386719 764.058594 249.664062 767.609375 254.972656 768.703125 C 264.53125 770.667969 274.046875 772.996094 283.945312 772.507812 C 289.457031 772.234375 294.992188 772.742188 300.496094 771.890625 C 304.195312 771.320312 306.808594 769.605469 308.523438 766.171875 C 312.941406 757.324219 316.367188 748.070312 320.027344 738.910156 C 326.292969 723.238281 331.519531 707.1875 337.296875 691.335938 C 337.664062 690.335938 337.824219 689.21875 338.851562 688.28125 C 340 689.027344 340.15625 690.167969 340.589844 691.132812 C 345.550781 702.136719 351.183594 712.75 358.660156 722.296875 C 368.371094 734.695312 378.851562 746.464844 391.773438 755.523438 C 405.257812 764.976562 419.90625 772.199219 436.488281 774.890625 C 447.597656 776.695312 458.722656 778.292969 469.921875 779.339844 C 474.035156 779.722656 478.167969 780.070312 482.320312 780.144531 C 490.3125 780.285156 498.300781 780.964844 506.289062 780.542969 C 517.046875 779.972656 527.785156 780.882812 538.535156 780.75 C 542.949219 780.691406 547.367188 781.398438 551.820312 781.367188 C 562.898438 781.28125 572.960938 778.117188 582.28125 772.164062 C 591.765625 766.109375 599.25 758.050781 605.816406 749.089844 C 612.355469 740.15625 617.664062 730.4375 623.113281 720.828125 C 634.773438 700.261719 644.121094 678.632812 652.375 656.507812 C 656.027344 646.710938 660.0625 637.050781 663.21875 627.070312 C 667.65625 613.035156 671.230469 598.789062 673.332031 584.203125 C 674.320312 577.335938 674.292969 570.460938 673.472656 563.554688 C 672.195312 552.839844 670.125 542.304688 666.480469 532.140625 C 663.644531 524.234375 660.066406 516.640625 656.125 509.226562 C 648.148438 494.238281 639.554688 479.605469 630.125 465.480469 C 621.785156 452.988281 612.488281 441.25 602.636719 429.90625 C 597.648438 424.15625 592.683594 418.410156 587.023438 413.335938 C 576.734375 404.117188 566.410156 394.921875 554.253906 388.109375 C 550.632812 386.078125 546.820312 384.453125 543.085938 382.660156 C 527.933594 375.378906 512.320312 369.269531 496.277344 364.269531 C 481.285156 359.601562 466.09375 355.675781 450.808594 352.109375 C 435.042969 348.433594 419.183594 345.195312 403.285156 342.167969 C 400.085938 341.558594 396.867188 341.050781 393.667969 340.449219 C 391.039062 339.953125 390.730469 339.636719 390.410156 337.054688 C 389.320312 328.34375 386.488281 320.15625 382.863281 312.230469 C 379.578125 305.054688 376.1875 297.925781 372.730469 290.828125 C 371.292969 287.875 370.296875 284.835938 369.667969 281.609375 C 366.625 266.035156 361.742188 251.0625 354.625 236.859375 C 350.714844 229.0625 345.9375 221.832031 339.960938 215.433594 C 338.320312 213.679688 338.355469 213.675781 340.238281 212.027344 C 342.539062 210.007812 344.859375 208.011719 347.078125 205.910156 C 350.324219 202.828125 354.203125 201.03125 358.480469 199.929688 C 361.632812 199.117188 364.78125 198.273438 367.898438 197.339844 C 372.789062 195.875 376.59375 192.882812 379.820312 188.96875 C 387.457031 179.703125 392.015625 168.984375 394.980469 157.492188 C 399.152344 141.324219 402.113281 124.933594 404.066406 108.355469 C 405.40625 96.984375 406.585938 85.59375 406.234375 74.140625 C 405.859375 62.023438 405.304688 49.898438 402.320312 38.039062 C 400.285156 29.953125 396.945312 22.511719 391.164062 16.449219 C 385.152344 10.144531 378.570312 4.503906 370.269531 1.269531 C 367.078125 0.03125 363.9375 0.0585938 360.710938 1.066406 C 356.648438 2.332031 352.601562 3.664062 348.835938 5.625 C 340.441406 10.003906 331.925781 14.15625 323.777344 19.019531 C 315.699219 23.839844 308.765625 29.804688 303.140625 37.378906 C 294.195312 49.425781 285.21875 61.445312 277.773438 74.503906 C 273.421875 82.132812 269.007812 89.757812 266.621094 98.296875 C 263.773438 108.464844 263.128906 118.824219 263.832031 129.363281 C 265.023438 147.183594 268.949219 164.464844 273.539062 181.640625 C 274.324219 184.570312 274.167969 184.796875 270.992188 184.847656 C 268.226562 184.894531 265.480469 185.042969 262.726562 185.378906 C 257.226562 186.054688 251.808594 187.066406 246.515625 188.714844 C 243.609375 189.617188 243.453125 189.5 243.464844 186.550781 C 243.484375 181.816406 243.636719 177.074219 243.519531 172.34375 C 243.078125 154.554688 241.28125 136.910156 237.234375 119.5625 C 233.613281 104.039062 227.222656 89.652344 218.664062 76.230469 C 209.4375 61.769531 198.601562 48.605469 186.074219 36.894531 C 176.679688 28.109375 166.550781 20.25 154.890625 14.578125 C 152.757812 13.539062 150.59375 12.570312 148.316406 11.90625 C 144.066406 10.667969 141.140625 12.191406 139.769531 16.375 C 138.871094 19.113281 138.609375 21.980469 138.539062 24.839844 C 138.175781 39.867188 141.214844 54.242188 146.984375 68.082031 Z M 146.984375 68.082031 " fill-opacity="1" fill-rule="nonzero"/></g><path fill="#845230" d="M 178.878906 392.363281 C 179.519531 395.769531 180.6875 399.027344 182.058594 402.199219 C 185.109375 409.269531 188.566406 416.148438 192.371094 422.84375 C 194.375 426.371094 197.039062 429.445312 199.785156 432.421875 C 206.960938 440.195312 214.867188 447.164062 223.101562 453.808594 C 230.328125 459.640625 237.546875 465.445312 245.699219 469.96875 C 252.449219 473.710938 259.28125 477.238281 267.054688 478.402344 C 270.402344 478.90625 273.742188 479.199219 277.007812 478.066406 C 278.269531 477.628906 279.046875 477.996094 279.761719 479.019531 C 281.265625 481.167969 283.085938 482.117188 285.984375 482.023438 C 289.078125 481.925781 292.214844 482.738281 295.390625 482.394531 C 296.027344 482.328125 296.746094 482.636719 297.367188 482.910156 C 299.515625 483.867188 301.390625 483.347656 303.183594 482.015625 C 304.933594 480.714844 306.523438 479.25 307.945312 477.59375 C 308.832031 476.5625 309.796875 475.601562 311.191406 474.113281 C 311.351562 475.726562 311.351562 476.621094 311.542969 477.472656 C 311.984375 479.390625 313.539062 480.257812 315.359375 479.503906 C 316.433594 479.058594 317.445312 478.382812 318.382812 477.671875 C 329.710938 469.09375 341.433594 461.023438 352.203125 451.734375 C 366.378906 439.507812 379.242188 426.046875 389.75 410.480469 C 393.34375 405.160156 396.515625 399.589844 398.8125 393.554688 C 399.78125 391.003906 399.855469 391.03125 402.511719 391.707031 C 406.648438 392.757812 407.976562 392.089844 409.402344 387.980469 C 410.238281 385.558594 410.882812 383.070312 411.597656 380.609375 C 412.320312 378.136719 412.757812 377.753906 415.246094 377.515625 C 416.03125 377.441406 416.820312 377.378906 417.605469 377.34375 C 421.199219 377.179688 423.050781 374.851562 424.160156 371.832031 C 425 369.546875 423.820312 367.558594 422.578125 365.769531 C 420.835938 363.25 418.761719 361 416.40625 359.015625 C 414.621094 357.515625 412.914062 355.921875 410.652344 353.90625 C 413.839844 353.664062 416.34375 353.410156 418.855469 353.300781 C 420.832031 353.214844 422.796875 353.105469 424.726562 352.652344 C 425.398438 352.496094 426.09375 352.339844 426.691406 352.023438 C 428.597656 351.019531 428.777344 349.113281 427.125 347.695312 C 426.289062 346.976562 425.269531 346.5625 424.246094 346.207031 C 415.933594 343.332031 407.496094 340.917969 398.773438 339.648438 C 397.125 339.40625 395.421875 339.421875 393.75 339.496094 C 391.039062 339.617188 390.320312 340.257812 389.875 342.996094 C 389.355469 346.207031 389.023438 349.449219 388.519531 352.660156 C 385.613281 371.21875 375.339844 384.605469 359.398438 393.988281 C 353.070312 397.714844 346.207031 400.226562 339.320312 402.664062 C 335.503906 404.019531 331.730469 405.464844 328.007812 407.050781 C 327.375 407.320312 326.644531 407.917969 326.074219 407.609375 C 323.746094 406.34375 322.597656 408.058594 321.34375 409.367188 C 311.390625 419.753906 298.957031 424.851562 284.90625 426.558594 C 274.550781 427.816406 264.648438 426.335938 255.230469 421.804688 C 251.730469 420.121094 248.683594 417.777344 245.875 415.121094 C 243.792969 413.152344 241.648438 411.253906 239.230469 409.707031 C 237.273438 408.449219 237.230469 408.480469 236.503906 410.683594 C 236.316406 411.25 236.019531 411.519531 235.457031 411.449219 C 234.96875 411.386719 234.484375 411.273438 234.003906 411.167969 C 223.070312 408.820312 212.414062 405.707031 202.316406 400.738281 C 195.410156 397.339844 188.464844 394.027344 181.734375 390.289062 C 180.992188 389.875 180.179688 389.050781 179.308594 389.625 C 178.335938 390.269531 178.707031 391.433594 178.878906 392.363281 Z M 339.078125 734.109375 C 342.640625 733.25 346.214844 732.605469 349.890625 732.5625 C 351.664062 732.539062 353.4375 732.566406 355.199219 732.222656 C 358.347656 731.605469 358.804688 731 358.453125 727.835938 C 358.289062 726.367188 358.171875 724.890625 358.070312 723.417969 C 358.035156 722.90625 358.222656 722.414062 358.722656 722.191406 C 359.238281 721.960938 359.675781 722.230469 360.03125 722.601562 C 360.371094 722.960938 360.699219 723.332031 361.015625 723.707031 C 366.832031 730.566406 373.390625 736.714844 379.691406 743.105469 C 380.1875 743.609375 380.570312 744.40625 381.535156 744.292969 C 381.636719 743.304688 381.167969 742.523438 380.863281 741.714844 C 379.246094 737.398438 378.710938 732.941406 378.863281 728.347656 C 379.195312 718.273438 384.230469 711.953125 394.046875 709.484375 C 396.535156 708.859375 399.058594 708.402344 401.613281 708.121094 C 403.15625 707.949219 404.257812 707.355469 404.992188 705.734375 C 410.3125 693.980469 419.5 686.378906 431.589844 682.546875 C 440.925781 679.589844 450.308594 679.734375 458.933594 685.28125 C 460.40625 686.226562 461.425781 685.710938 462.707031 685.023438 C 471.769531 680.148438 480.878906 679.59375 490.09375 684.734375 C 494.214844 687.035156 497.308594 690.160156 499.132812 694.535156 C 500.105469 696.863281 500.183594 696.9375 502.59375 696.046875 C 507.136719 694.367188 511.660156 694.417969 516.246094 695.816406 C 519.386719 696.773438 522.410156 698.027344 525.050781 699.957031 C 533.878906 706.414062 540.738281 714.128906 540.789062 725.914062 C 540.792969 727.417969 541.480469 728.28125 542.792969 728.851562 C 544.605469 729.644531 546.367188 730.585938 547.835938 731.914062 C 550.945312 734.722656 552.769531 738.105469 551.808594 742.429688 C 550.824219 746.839844 548.144531 749.777344 543.757812 751.050781 C 542.238281 751.492188 540.675781 751.679688 539.085938 751.730469 C 535.121094 751.855469 531.207031 751.441406 527.300781 750.820312 C 518.132812 749.359375 509.113281 747.175781 500.09375 745.019531 C 488.597656 742.269531 476.984375 740.933594 465.167969 741.601562 C 456.679688 742.082031 448.328125 743.621094 439.945312 744.898438 C 425.40625 747.113281 411 750.050781 396.582031 752.933594 C 395.722656 753.105469 394.820312 753.171875 393.96875 753.835938 C 394.238281 755.652344 395.347656 756.636719 396.601562 757.445312 C 398.761719 758.828125 400.9375 760.1875 403.15625 761.472656 C 406.644531 763.492188 406.015625 765.132812 403.40625 767.320312 C 401.246094 769.125 398.632812 770.105469 395.890625 770.628906 C 391.914062 771.390625 387.863281 771.648438 383.832031 771.761719 C 377.8125 771.9375 371.789062 771.921875 365.769531 771.878906 C 359.363281 771.832031 352.941406 772.117188 346.554688 771.242188 C 340.839844 770.457031 335.460938 769.03125 330.460938 765.824219 C 321.769531 760.246094 322.382812 746.097656 328.003906 740.648438 C 331.164062 737.585938 334.699219 735.167969 339.078125 734.109375 Z M 138.015625 22.546875 C 139.246094 23.300781 139.417969 24.542969 139.804688 25.601562 C 140.988281 28.847656 142.3125 32.023438 143.929688 35.089844 C 148.132812 43.054688 153.304688 50.390625 158.5 57.714844 C 168.316406 71.5625 177.765625 85.65625 186.621094 100.132812 C 194.921875 113.707031 202.289062 127.796875 206.796875 143.148438 C 210.316406 155.136719 216.128906 165.960938 223.085938 176.191406 C 227.429688 182.585938 233.019531 187.675781 240.773438 189.792969 C 241.144531 189.894531 241.519531 190.074219 241.804688 190.84375 C 239.636719 192.324219 237.46875 193.671875 235.441406 195.207031 C 226.539062 201.953125 218.226562 209.355469 210.878906 217.796875 C 209.402344 219.492188 208.441406 219.683594 206.488281 218.648438 C 205.273438 218 204.175781 217.082031 202.761719 216.914062 C 198.566406 216.421875 196.195312 213.699219 194.324219 210.246094 C 192.671875 207.191406 191.5625 203.921875 190.234375 200.738281 C 180.585938 177.59375 172.027344 154.0625 165 129.980469 C 160.800781 115.585938 156.289062 101.289062 151.140625 87.199219 C 145.738281 72.421875 141.800781 57.28125 139.554688 41.691406 C 138.839844 36.726562 138.808594 31.667969 137.398438 26.789062 C 137.015625 25.472656 136.832031 23.898438 138.015625 22.546875 Z M 303.777344 592.246094 C 304.113281 589.410156 304.445312 586.5625 304.921875 583.746094 C 309.058594 559.386719 320.753906 539.578125 340.789062 524.933594 C 347.054688 520.355469 353.972656 516.996094 361.683594 515.515625 C 362.851562 515.292969 364.039062 515.117188 365.203125 515.457031 C 366.078125 515.710938 366.542969 516.242188 366 517.230469 C 365.378906 518.367188 364.628906 519.351562 363.636719 520.21875 C 360.742188 522.753906 357.800781 525.253906 355.105469 527.988281 C 348.582031 534.597656 342.527344 541.613281 337.046875 549.125 C 330.964844 557.460938 325.664062 566.183594 322.761719 576.207031 C 319.847656 586.285156 317.625 596.386719 317.84375 607.039062 C 317.945312 611.925781 318.515625 616.617188 319.445312 621.339844 C 319.671875 622.503906 319.996094 623.644531 320.261719 624.796875 C 323.457031 638.554688 327.644531 652.019531 331.980469 665.453125 C 334.304688 672.652344 337.449219 679.660156 338.101562 687.339844 C 338.125 687.625 338.1875 687.976562 338.367188 688.164062 C 339.648438 689.480469 339.121094 690.957031 338.6875 692.347656 C 337.796875 695.167969 336.851562 697.976562 335.804688 700.742188 C 333.648438 706.460938 331.433594 712.160156 329.199219 717.851562 C 327.21875 722.902344 325.199219 727.9375 323.15625 732.960938 C 322.746094 733.960938 322.207031 734.921875 321.613281 735.824219 C 320.839844 736.996094 320.175781 737.015625 319.316406 735.902344 C 317.96875 734.152344 317.207031 732.117188 316.730469 729.980469 C 314.195312 718.617188 312.148438 707.160156 310.269531 695.675781 C 308.054688 682.144531 306.734375 668.496094 305.378906 654.859375 C 304.019531 641.210938 302.859375 627.558594 303.03125 617.15625 C 303.097656 606.625 302.9375 599.417969 303.777344 592.246094 Z M 388.019531 177.714844 C 386.078125 180.914062 384.105469 184.097656 382.113281 187.269531 C 377.160156 195.171875 370.132812 199.859375 360.824219 201.117188 C 354.785156 201.929688 349.578125 204.59375 345.046875 208.636719 C 343.429688 210.078125 341.738281 211.4375 340.058594 212.808594 C 339.453125 213.300781 338.820312 213.800781 337.917969 213.800781 C 337.058594 213.628906 336.355469 213.066406 335.648438 212.542969 C 331.371094 209.378906 327.113281 206.191406 322.851562 203.007812 C 322.535156 202.773438 322.234375 202.511719 321.964844 202.226562 C 321.628906 201.867188 321.226562 201.449219 321.488281 200.933594 C 321.777344 200.359375 322.359375 200.503906 322.757812 200.773438 C 324.394531 201.875 325.710938 201.125 327.078125 200.191406 C 331.636719 197.082031 336.234375 194.03125 340.792969 190.921875 C 343.652344 188.972656 346.640625 187.277344 349.78125 185.828125 C 355.457031 183.203125 361.519531 181.8125 367.488281 180.125 C 374.703125 178.085938 381.980469 176.175781 387.898438 171.179688 C 388.046875 171.050781 388.222656 170.949219 388.394531 170.855469 C 388.835938 170.613281 389.308594 170.414062 389.789062 170.691406 C 390.414062 171.050781 390.371094 171.679688 390.238281 172.261719 C 389.792969 174.195312 389.050781 176.023438 388.019531 177.714844 Z M 588.207031 536.230469 C 587.230469 536.691406 586.855469 535.695312 586.429688 535.097656 C 585.855469 534.300781 585.355469 533.449219 584.882812 532.585938 C 582.335938 527.910156 580.078125 523.105469 578.179688 518.121094 C 574.957031 509.652344 571.054688 501.464844 567.472656 493.148438 C 566.8125 491.609375 566.210938 490.042969 566.09375 488.34375 C 566.074219 487.132812 566.0625 485.867188 567.433594 485.351562 C 568.804688 484.835938 569.691406 485.769531 570.398438 486.734375 C 571.210938 487.839844 571.964844 489.007812 572.613281 490.21875 C 576.613281 497.691406 580.308594 505.300781 583.21875 513.28125 C 585.691406 520.054688 587.652344 526.953125 588.667969 534.101562 C 588.773438 534.847656 589.09375 535.808594 588.207031 536.230469 Z M 596.511719 705.140625 C 598.039062 702.046875 599.789062 699.078125 601.710938 696.210938 C 606.703125 688.761719 611.546875 681.226562 616.015625 673.445312 C 617.730469 670.457031 619.621094 667.570312 621.453125 664.648438 C 621.976562 663.816406 622.515625 662.960938 623.730469 662.898438 C 624.851562 663.03125 625.363281 663.804688 625.496094 664.878906 C 625.683594 666.402344 625.1875 667.816406 624.582031 669.164062 C 618.644531 682.378906 611.058594 694.527344 601.0625 705.085938 C 599.984375 706.222656 598.722656 707.195312 597.511719 708.203125 C 597.003906 708.628906 596.390625 709.234375 595.703125 708.65625 C 595.03125 708.09375 595.539062 707.371094 595.765625 706.75 C 595.96875 706.195312 596.25 705.671875 596.511719 705.140625 Z M 546.816406 414.753906 C 547.238281 413.664062 548.21875 413.476562 549.613281 413.484375 C 550.128906 413.660156 550.992188 413.886719 551.792969 414.242188 C 553.96875 415.199219 555.96875 416.460938 557.886719 417.859375 C 566.285156 423.984375 573.878906 431.011719 580.925781 438.617188 C 583.535156 441.433594 586.019531 444.386719 588.179688 447.574219 C 588.457031 447.984375 588.773438 448.5 588.441406 448.9375 C 588 449.519531 587.378906 449.269531 586.847656 448.976562 C 586.414062 448.738281 586 448.472656 585.589844 448.199219 C 581.40625 445.398438 577.40625 442.351562 573.605469 439.050781 C 567.796875 434.011719 562.03125 428.925781 556.183594 423.929688 C 553.488281 421.628906 550.632812 419.507812 547.867188 417.28125 C 547.082031 416.648438 546.382812 415.878906 546.816406 414.753906 Z M 544.195312 447.417969 C 543.574219 447.128906 542.960938 446.804688 542.398438 446.414062 C 539.894531 444.671875 537.371094 442.953125 534.917969 441.132812 C 526.839844 435.144531 519.484375 428.292969 511.898438 421.71875 C 510.039062 420.105469 508.207031 418.460938 506.390625 416.804688 C 505.664062 416.136719 505.007812 415.386719 504.945312 414.316406 C 504.921875 412.902344 506.261719 411.980469 507.910156 412.359375 C 509.382812 412.699219 510.550781 413.652344 511.75 414.511719 C 515.761719 417.375 519.503906 420.578125 523.25 423.773438 C 530.527344 429.976562 537.433594 436.5625 543.566406 443.917969 C 544.195312 444.671875 544.730469 445.503906 545.246094 446.335938 C 545.375 446.542969 545.367188 446.953125 545.242188 447.164062 C 545.019531 447.535156 544.566406 447.589844 544.195312 447.417969 Z M 620.28125 626.488281 C 620.167969 626.683594 619.800781 626.800781 619.542969 626.816406 C 619.203125 626.835938 619.046875 626.511719 618.988281 626.226562 C 618.90625 625.847656 618.890625 625.449219 618.863281 625.191406 C 618.910156 624.664062 618.925781 624.265625 618.988281 623.878906 C 619.839844 618.527344 620.585938 613.160156 621.574219 607.832031 C 623.171875 599.210938 625.078125 590.648438 626.226562 581.945312 C 626.484375 579.996094 626.546875 578.019531 626.796875 576.070312 C 626.953125 574.84375 627.453125 573.75 628.882812 573.546875 C 630.035156 573.382812 631.015625 574.269531 631.484375 575.898438 C 632.011719 577.71875 632.101562 579.589844 631.902344 581.46875 C 630.351562 596.257812 626.863281 610.574219 621.320312 624.378906 C 621.027344 625.105469 620.679688 625.816406 620.28125 626.488281 Z M 580.757812 617.042969 C 580.308594 618.023438 580.148438 619.773438 578.691406 619.429688 C 577.4375 619.136719 578.171875 617.554688 577.96875 616.597656 C 578.03125 615.761719 578.070312 614.976562 578.148438 614.191406 C 579.007812 605.859375 580.714844 597.671875 582.476562 589.496094 C 583.46875 584.882812 584.359375 580.230469 585.898438 575.757812 C 586.699219 573.429688 588.207031 572.429688 589.734375 572.898438 C 591.191406 573.347656 591.65625 574.585938 591.183594 577.160156 C 590.417969 581.320312 589.652344 585.484375 588.777344 589.621094 C 586.796875 598.964844 584.785156 608.304688 580.757812 617.042969 Z M 532.578125 394.132812 C 531.808594 394.113281 531.03125 393.855469 530.289062 393.613281 C 525.59375 392.085938 520.996094 390.292969 516.527344 388.191406 C 509.925781 385.078125 503.332031 381.941406 496.726562 378.832031 C 495.300781 378.160156 493.8125 377.613281 492.398438 376.910156 C 491.203125 376.316406 490.210938 375.46875 490.523438 373.914062 C 490.777344 372.648438 492.027344 371.945312 493.957031 371.992188 C 495.195312 372.0625 496.507812 372.503906 497.800781 372.992188 C 510.070312 377.613281 521.382812 383.980469 531.933594 391.734375 C 532.402344 392.078125 532.894531 392.460938 533.214844 392.933594 C 533.667969 393.601562 533.292969 394.152344 532.578125 394.132812 Z M 623.460938 510.3125 C 619.304688 503.378906 615.261719 496.382812 610.800781 489.636719 C 610.421875 489.066406 610.066406 488.46875 609.773438 487.847656 C 609.324219 486.902344 609.15625 485.902344 610.082031 485.152344 C 611.011719 484.398438 611.996094 484.785156 612.792969 485.414062 C 613.792969 486.207031 614.746094 487.074219 615.609375 488.015625 C 618.820312 491.523438 621.285156 495.578125 623.828125 499.5625 C 627.8125 505.808594 631.300781 512.316406 633.644531 519.378906 C 633.984375 520.40625 634.269531 521.449219 634.4375 522.011719 C 634.574219 523.003906 634.636719 523.566406 634.175781 523.855469 C 633.539062 524.25 633.058594 523.757812 632.652344 523.335938 C 632.242188 522.914062 631.890625 522.433594 631.519531 521.972656 C 628.53125 518.292969 625.898438 514.375 623.460938 510.3125 Z M 541.84375 626.023438 C 541.535156 626.515625 541.164062 627.199219 540.523438 627.015625 C 539.609375 626.75 540 625.894531 540.054688 625.246094 C 540.089844 624.859375 540.210938 624.476562 540.296875 624.089844 C 541.296875 619.664062 542.472656 615.285156 543.886719 610.972656 C 546.78125 602.167969 549.839844 593.410156 551.746094 584.3125 C 551.847656 583.832031 551.957031 583.34375 552.148438 582.894531 C 552.394531 582.324219 552.84375 581.902344 553.507812 581.929688 C 554.167969 581.960938 554.574219 582.414062 554.800781 582.992188 C 555.277344 584.226562 555.089844 585.523438 555.128906 586.519531 C 555.121094 588.382812 554.960938 589.941406 554.640625 591.5 C 552.835938 600.324219 550.035156 608.839844 546.460938 617.09375 C 545.128906 620.167969 543.617188 623.171875 541.84375 626.023438 Z M 486.398438 430.601562 C 484.042969 430.128906 481.796875 429.140625 479.632812 427.957031 C 474.109375 424.933594 468.605469 421.871094 463.261719 418.535156 C 459.167969 415.980469 455.214844 413.21875 451.570312 410.050781 C 450.882812 409.453125 449.457031 408.894531 450.011719 407.867188 C 450.609375 406.753906 451.785156 407.75 452.621094 408.078125 C 454.722656 408.910156 456.820312 409.777344 458.839844 410.785156 C 468.273438 415.496094 477.191406 421.097656 486.140625 426.640625 C 486.722656 427 487.269531 427.429688 487.769531 427.898438 C 488.300781 428.390625 488.597656 429.023438 488.234375 429.753906 C 487.882812 430.46875 487.214844 430.609375 486.398438 430.601562 Z M 216.289062 534.515625 C 218 534.496094 219.101562 536 219.175781 538.605469 C 219.269531 542.160156 219.78125 545.675781 220.167969 549.199219 C 220.742188 554.398438 221.296875 559.609375 220.710938 564.835938 C 220.582031 565.996094 221.039062 567.953125 219.53125 568.128906 C 218.113281 568.296875 217.917969 566.367188 217.496094 565.226562 C 214.675781 557.667969 213.507812 549.789062 213.113281 541.773438 C 213.113281 540.6875 213.039062 539.597656 213.125 538.519531 C 213.324219 536.078125 214.582031 534.535156 216.289062 534.515625 Z M 524.613281 473.828125 C 525.71875 474.355469 526.46875 475.28125 527.144531 476.257812 C 529.121094 479.117188 530.597656 482.238281 531.886719 485.441406 C 535.425781 494.246094 538 503.347656 540.09375 512.59375 C 540.222656 513.167969 540.300781 513.757812 540.378906 514.222656 C 540.414062 514.828125 540.542969 515.394531 540 515.644531 C 539.414062 515.917969 539.109375 515.398438 538.851562 515 C 538.535156 514.503906 538.265625 513.972656 538.019531 513.4375 C 535.511719 507.96875 533.035156 502.496094 531.039062 496.808594 C 528.71875 490.203125 526.332031 483.617188 522.890625 477.480469 C 522.601562 476.96875 522.363281 476.417969 522.175781 475.859375 C 521.941406 475.152344 522.058594 474.472656 522.660156 473.984375 C 523.257812 473.496094 523.953125 473.511719 524.613281 473.828125 Z M 647.011719 612.128906 C 647.710938 606.238281 649.367188 600.550781 650.652344 594.777344 C 651.65625 590.261719 652.683594 585.734375 652.761719 581.066406 C 652.785156 579.824219 653.109375 578.605469 654.59375 578.433594 C 656.039062 578.261719 656.652344 579.359375 657.097656 580.507812 C 657.574219 581.734375 657.507812 583.027344 657.511719 584.640625 C 657.488281 585.09375 657.488281 585.886719 657.398438 586.667969 C 656.261719 596.546875 653.441406 605.953125 649.398438 615.011719 C 649.238281 615.375 649.078125 615.738281 648.878906 616.074219 C 648.488281 616.722656 648.292969 617.8125 647.371094 617.65625 C 646.328125 617.476562 646.683594 616.378906 646.699219 615.660156 C 646.71875 614.480469 646.871094 613.304688 647.011719 612.128906 Z M 193.035156 495.476562 C 192.902344 495.863281 192.5625 496.15625 192.140625 496.105469 C 191.734375 496.054688 191.480469 495.703125 191.390625 495.300781 C 191.285156 494.824219 191.210938 494.335938 191.15625 493.851562 C 190.773438 490.234375 190.445312 486.613281 190.585938 483.546875 C 190.585938 482.277344 190.570312 481.589844 190.585938 480.902344 C 190.738281 474.601562 191.253906 468.335938 192.71875 462.191406 C 193.25 459.96875 194.433594 458.980469 195.789062 459.25 C 197.144531 459.519531 197.71875 460.828125 197.527344 463.136719 C 197.226562 466.660156 196.964844 470.1875 196.648438 473.710938 C 196.066406 480.171875 195.296875 486.613281 193.800781 492.941406 C 193.597656 493.796875 193.320312 494.640625 193.035156 495.476562 Z M 563.007812 701.246094 C 566.308594 693.722656 571.09375 687.035156 575.148438 679.9375 C 575.605469 679.136719 576.289062 678.578125 577.375 678.617188 C 578.457031 678.742188 579.027344 679.488281 579.238281 680.539062 C 579.464844 681.648438 579.175781 682.726562 578.742188 683.710938 C 575.296875 691.515625 571.191406 698.890625 564.84375 704.78125 C 564.484375 705.117188 564.101562 705.433594 563.703125 705.722656 C 563.21875 706.074219 562.671875 706.402344 562.097656 705.96875 C 561.640625 705.621094 561.726562 705.0625 561.867188 704.597656 C 562.210938 703.46875 562.535156 702.324219 563.007812 701.246094 Z M 465.644531 386.777344 C 460.863281 384.921875 456.042969 383.160156 451.304688 381.207031 C 448.113281 379.890625 445.03125 378.316406 442.207031 376.292969 C 441.652344 375.894531 440.933594 375.457031 441.136719 374.675781 C 441.351562 373.855469 442.179688 373.917969 442.875 373.914062 C 443.070312 373.9375 443.269531 373.953125 443.464844 373.976562 C 451.054688 374.992188 458.300781 377.167969 465.203125 380.480469 C 466.367188 381.035156 467.433594 381.75 468.335938 382.679688 C 469.300781 383.671875 469.917969 384.785156 469.0625 386.113281 C 468.191406 387.46875 466.941406 387.277344 465.644531 386.777344 Z M 249.492188 535.355469 C 250.800781 535.230469 251.445312 536.132812 251.8125 537.230469 C 252.0625 537.976562 252.246094 538.75 252.390625 539.519531 C 253.476562 545.347656 253.769531 551.257812 254.105469 557.15625 C 254.179688 559.433594 254.007812 561.691406 253.65625 563.9375 C 253.496094 564.957031 253.960938 566.601562 252.734375 566.777344 C 251.222656 566.996094 251.289062 565.21875 250.988281 564.1875 C 248.609375 556.085938 248.0625 547.71875 247.472656 539.363281 C 247.4375 538.871094 247.453125 538.371094 247.503906 537.882812 C 247.636719 536.628906 248.019531 535.492188 249.492188 535.355469 Z M 217.582031 597.285156 C 218.539062 596.746094 219.492188 596.902344 220.351562 597.546875 C 221.40625 598.339844 222.046875 599.476562 222.628906 600.605469 C 224.339844 603.9375 226.070312 607.261719 227.621094 610.667969 C 229.132812 613.996094 230.011719 617.550781 230.765625 621.121094 C 230.90625 621.789062 231.164062 622.613281 230.457031 623.019531 C 229.542969 623.542969 229.070312 622.644531 228.53125 622.109375 C 228.324219 621.902344 228.167969 621.644531 227.976562 621.417969 C 223.050781 615.503906 219.824219 608.660156 217.085938 601.550781 C 216.839844 600.910156 216.6875 600.238281 216.558594 599.8125 C 216.472656 598.613281 216.710938 597.773438 217.582031 597.285156 Z M 255.371094 612.683594 C 256.21875 612.402344 256.957031 612.703125 257.511719 613.308594 C 257.972656 613.804688 258.386719 614.390625 258.664062 615.003906 C 259.472656 616.800781 260.246094 618.613281 260.953125 620.449219 C 263.152344 626.171875 264.777344 632.042969 265.289062 638.179688 C 265.289062 638.378906 265.300781 638.574219 265.289062 638.773438 C 265.246094 639.367188 265.21875 640.03125 264.5625 640.261719 C 263.878906 640.5 263.484375 639.949219 263.148438 639.46875 C 262.699219 638.820312 262.253906 638.167969 261.867188 637.480469 C 258.167969 630.898438 255.882812 623.789062 254.132812 616.484375 C 254 615.917969 253.953125 615.3125 253.976562 614.730469 C 254.007812 613.78125 254.394531 613.003906 255.371094 612.683594 Z M 246.015625 277.945312 C 245.152344 278.054688 244.445312 277.660156 244 276.953125 C 243.585938 276.289062 243.222656 275.574219 242.964844 274.835938 C 241.886719 271.765625 240.804688 268.691406 239.820312 265.589844 C 238.59375 261.730469 237.667969 257.792969 237.378906 253.433594 C 237.378906 253.433594 237.355469 253.136719 237.382812 252.84375 C 237.445312 252.09375 237.085938 251.078125 237.996094 250.738281 C 239.09375 250.324219 239.445312 251.429688 239.953125 252.105469 C 240.128906 252.339844 240.257812 252.609375 240.414062 252.863281 C 244.34375 259.386719 246.140625 266.679688 247.996094 273.945312 C 248.195312 274.71875 248.183594 275.511719 247.90625 276.28125 C 247.578125 277.179688 246.996094 277.816406 246.015625 277.945312 Z M 573.105469 738.386719 C 578.507812 734.542969 583.703125 730.480469 587.726562 725.117188 C 588.128906 724.582031 588.578125 723.902344 589.402344 724.195312 C 590.277344 724.503906 590.398438 725.332031 590.476562 726.164062 C 590.339844 727.878906 589.484375 729.3125 588.515625 730.695312 C 583.59375 737.691406 576.933594 742.4375 569.101562 745.65625 C 568.644531 745.84375 568.171875 745.988281 567.695312 746.117188 C 567.222656 746.25 566.691406 746.414062 566.320312 745.972656 C 565.816406 745.375 566.226562 744.847656 566.617188 744.414062 C 568.597656 742.210938 570.679688 740.113281 573.105469 738.386719 Z M 277.230469 224.839844 C 276.9375 225.667969 276.546875 226.46875 276.140625 227.25 C 276.023438 227.476562 275.691406 227.710938 275.449219 227.71875 C 275.023438 227.730469 274.722656 227.398438 274.71875 226.964844 C 274.695312 225.394531 274.707031 223.824219 274.707031 222.253906 C 274.683594 215.003906 276.386719 208.027344 278.148438 201.0625 C 278.34375 200.296875 278.644531 199.558594 279.21875 198.988281 C 279.890625 198.3125 280.6875 197.992188 281.628906 198.367188 C 282.4375 198.6875 282.859375 199.34375 282.933594 200.179688 C 282.976562 200.660156 282.886719 201.15625 282.820312 201.640625 C 281.691406 209.550781 279.910156 217.304688 277.230469 224.839844 Z M 297.453125 224.398438 C 296.183594 227.179688 294.644531 229.820312 292.925781 232.355469 C 292.601562 232.832031 292.214844 233.425781 291.535156 233.207031 C 290.832031 232.984375 290.894531 232.292969 290.976562 231.703125 C 291.101562 230.828125 291.253906 229.953125 291.433594 229.082031 C 292.945312 221.800781 296.074219 215.070312 298.578125 208.125 C 298.679688 207.851562 298.832031 207.589844 298.996094 207.34375 C 299.632812 206.394531 300.417969 205.605469 301.671875 206.011719 C 302.878906 206.402344 303.210938 207.429688 303.195312 208.769531 C 303.078125 209.285156 302.957031 209.964844 302.769531 210.628906 C 301.449219 215.390625 299.503906 219.917969 297.453125 224.398438 Z M 188.699219 520.753906 C 190.050781 520.691406 190.484375 521.816406 190.769531 522.878906 C 191.152344 524.300781 191.457031 525.742188 191.75 527.1875 C 192.859375 532.671875 193.9375 538.164062 194.238281 543.769531 C 194.238281 544.261719 194.285156 544.757812 194.230469 545.242188 C 194.113281 546.269531 194.511719 547.785156 193.289062 548.070312 C 191.964844 548.378906 191.777344 546.777344 191.335938 545.882812 C 188.710938 540.503906 187.746094 534.6875 187.050781 528.820312 C 186.832031 526.980469 186.308594 525.140625 186.671875 523.261719 C 186.898438 522.078125 187.207031 520.820312 188.699219 520.753906 Z M 262.5 513.269531 C 262.734375 512.175781 263.097656 511.074219 264.464844 511.0625 C 265.667969 511.054688 266.117188 512.042969 266.394531 513.003906 C 268.292969 519.632812 269.863281 526.328125 270.136719 533.253906 C 270.136719 534.433594 270.152344 535.617188 270.128906 536.792969 C 270.117188 537.300781 269.945312 537.820312 269.375 537.910156 C 268.828125 537.996094 268.472656 537.589844 268.230469 537.144531 C 267.851562 536.457031 267.472656 535.765625 267.144531 535.050781 C 264.183594 528.601562 263.265625 521.671875 262.402344 514.734375 C 262.34375 514.257812 262.398438 513.746094 262.5 513.269531 Z M 279.949219 265.890625 C 279.609375 266.601562 279.234375 267.296875 278.820312 267.96875 C 278.511719 268.476562 278.089844 269.023438 277.421875 268.808594 C 276.753906 268.59375 276.746094 267.917969 276.800781 267.320312 C 276.902344 260.101562 279.074219 253.339844 281.347656 246.605469 C 281.472656 246.238281 281.695312 245.894531 281.929688 245.578125 C 282.496094 244.816406 283.226562 244.351562 284.21875 244.601562 C 285.199219 244.84375 285.644531 245.589844 285.863281 246.503906 C 286.054688 247.296875 285.84375 248.070312 285.695312 248.84375 C 284.550781 254.785156 282.566406 260.445312 279.949219 265.890625 Z M 253.839844 232.203125 C 253.367188 231.601562 253.046875 230.839844 252.804688 230.101562 C 252.261719 228.417969 251.785156 226.707031 251.324219 224.996094 C 249.917969 219.757812 248.574219 214.507812 248.160156 208.753906 C 248.269531 208.238281 247.808594 206.992188 248.824219 206.710938 C 250.113281 206.355469 250.164062 207.808594 250.648438 208.578125 C 250.699219 208.660156 250.722656 208.757812 250.765625 208.847656 C 253.59375 215.089844 255.117188 221.710938 256.402344 228.394531 C 256.625 229.546875 256.757812 230.757812 256.207031 231.878906 C 255.671875 232.960938 254.574219 233.144531 253.839844 232.203125 Z M 233.816406 474.023438 C 235.054688 473.917969 236.054688 474.972656 236.265625 476.859375 C 236.835938 481.96875 237.058594 487.082031 235.808594 492.140625 C 235.644531 492.808594 235.4375 493.46875 235.199219 494.113281 C 235.023438 494.589844 234.710938 495.011719 234.148438 494.988281 C 233.59375 494.96875 233.285156 494.535156 233.097656 494.066406 C 232.804688 493.339844 232.515625 492.601562 232.300781 491.84375 C 231.382812 488.597656 231.089844 485.265625 230.953125 481.910156 C 230.917969 480.128906 230.996094 478.359375 231.402344 476.617188 C 231.710938 475.289062 232.265625 474.152344 233.816406 474.023438 Z M 175.957031 549.203125 C 177.277344 549.203125 177.8125 550.285156 178 551.371094 C 178.78125 555.90625 180.179688 560.347656 180.113281 565.011719 C 180.113281 566.089844 180.164062 567.171875 180.09375 568.25 C 180.046875 569 180.070312 569.957031 179.0625 570.113281 C 178.253906 570.238281 177.90625 569.460938 177.558594 568.898438 C 175.550781 565.667969 174.535156 562.085938 174.042969 558.359375 C 173.746094 556.132812 173.25 553.898438 173.859375 551.632812 C 174.175781 550.460938 174.441406 549.207031 175.957031 549.203125 Z M 235.335938 236.421875 C 234.632812 236.324219 233.988281 236.023438 233.480469 235.554688 C 230.355469 232.691406 227.160156 229.882812 224.921875 226.210938 C 224.359375 225.289062 223.867188 224.3125 223.695312 223.269531 C 223.652344 222.328125 224.074219 221.90625 224.953125 222.085938 C 225.429688 222.183594 225.894531 222.382812 226.328125 222.605469 C 230.949219 224.941406 234.394531 228.53125 237.164062 232.832031 C 237.375 233.15625 237.542969 233.53125 237.636719 233.910156 C 238.019531 235.472656 236.941406 236.640625 235.335938 236.421875 Z M 322.757812 220.324219 C 323.832031 221.605469 323.394531 223.441406 321.285156 225.117188 C 318.589844 227.257812 315.757812 229.222656 312.945312 231.207031 C 312.066406 231.828125 311.082031 232.308594 310.101562 232.753906 C 309.457031 233.042969 308.9375 232.828125 308.90625 231.808594 C 309.101562 231.433594 309.332031 230.890625 309.648438 230.398438 C 311.941406 226.804688 314.71875 223.628906 318.085938 220.996094 C 320.320312 219.25 321.726562 219.085938 322.757812 220.324219 Z M 266.382812 283.664062 C 264.863281 283.933594 264.464844 282.617188 264.085938 281.492188 C 263.898438 280.9375 263.769531 280.355469 263.6875 279.773438 C 263.253906 276.671875 262.667969 273.578125 262.898438 270.421875 C 262.898438 269.144531 262.863281 267.871094 262.914062 266.597656 C 262.941406 265.921875 263.097656 265.242188 263.25 264.578125 C 263.335938 264.199219 263.535156 263.835938 263.992188 263.773438 C 264.449219 263.710938 264.71875 264.007812 264.910156 264.359375 C 265.097656 264.703125 265.277344 265.058594 265.394531 265.425781 C 267.03125 270.507812 267.730469 275.738281 267.773438 281.0625 C 267.78125 282.144531 267.710938 283.429688 266.382812 283.664062 Z M 169.898438 470.160156 C 170.339844 469.195312 171.050781 468.5625 172.160156 468.578125 C 173.394531 468.59375 174.308594 469.289062 174.5 470.433594 C 175.0625 473.820312 174.539062 477.085938 172.703125 480.019531 C 171.914062 481.277344 170.972656 481.171875 170.21875 479.886719 C 169.285156 478.308594 169.167969 476.550781 169.203125 474.769531 C 169.203125 473.199219 169.234375 471.628906 169.898438 470.160156 Z M 169.898438 470.160156 " fill-opacity="1" fill-rule="nonzero"/><path fill="#fff4e2" d="M 381.277344 779.046875 C 382.597656 785.007812 387.039062 788.261719 392.605469 790.050781 C 395.425781 790.957031 398.332031 791.589844 401.148438 791.246094 C 404.535156 791.480469 407.621094 790.769531 410.726562 790.203125 C 413.761719 789.648438 413.808594 789.640625 414.734375 792.476562 C 415.636719 795.246094 417.480469 797.277344 419.804688 798.835938 C 427.464844 803.980469 439.3125 803.355469 446.226562 797.855469 C 447.988281 796.453125 448.367188 796.46875 450.003906 797.992188 C 457.042969 804.550781 465.40625 808.132812 474.925781 809.121094 C 482.953125 809.957031 490.621094 808.507812 497.9375 805.242188 C 501.128906 803.820312 503.761719 801.648438 505.851562 798.757812 C 507.980469 795.808594 507.773438 795.777344 511.40625 797.152344 C 514.539062 798.339844 517.769531 799.25 521.007812 800.148438 C 525.75 801.46875 530.570312 801.585938 535.398438 801.277344 C 544.21875 800.714844 548.988281 793.082031 546.15625 784.203125 C 545.46875 782.046875 544.582031 779.957031 543.527344 777.9375 C 542.746094 776.449219 542.996094 775.972656 544.695312 775.9375 C 548.003906 775.863281 551.179688 775.191406 554.175781 773.875 C 559.542969 771.515625 561.808594 766.714844 560.429688 761.039062 C 559.503906 757.21875 557.667969 753.859375 555.117188 750.921875 C 550.929688 746.105469 545.835938 742.402344 540.3125 739.257812 C 538.6875 738.328125 537.066406 737.382812 535.410156 736.507812 C 534.148438 735.839844 533.761719 735.003906 534.355469 733.617188 C 536.890625 727.691406 534.890625 722.597656 531.105469 718.050781 C 526.625 712.675781 520.273438 710.253906 513.902344 708.113281 C 508.953125 706.453125 503.863281 705.253906 498.640625 704.601562 C 495.578125 704.21875 492.542969 704.152344 489.496094 704.394531 C 488.21875 704.496094 487.238281 704.222656 486.21875 703.480469 C 482.550781 700.808594 478.722656 698.40625 474.667969 696.328125 C 468.089844 692.957031 461.21875 691.304688 453.835938 691.820312 C 446.582031 692.324219 440.335938 695.226562 434.777344 699.78125 C 430.34375 703.417969 426.179688 707.320312 422.652344 711.859375 C 421.75 713.015625 420.714844 713.777344 419.164062 713.707031 C 411.277344 713.355469 404.898438 716.996094 398.894531 721.511719 C 396.0625 723.640625 393.464844 726.019531 391.300781 728.910156 C 385.203125 737.0625 385.183594 745.671875 389.160156 754.578125 C 390.84375 758.351562 390.875 758.132812 387.664062 760.910156 C 381.261719 766.433594 379.660156 771.75 381.277344 779.046875 Z M 235.417969 351.417969 C 238.726562 349.390625 241.832031 349.550781 245.238281 351 C 248.859375 352.539062 252.480469 354.125 256.339844 355.046875 C 258.898438 355.652344 261.414062 355.664062 263.9375 354.949219 C 269.082031 353.496094 273.695312 351.074219 277.054688 346.855469 C 278.714844 344.769531 280.636719 344.382812 282.789062 345.171875 C 288.75 347.351562 292.992188 351.359375 295.085938 357.46875 C 295.761719 359.445312 295.355469 361.140625 293.960938 362.65625 C 292.953125 363.753906 291.839844 364.660156 290.421875 365.242188 C 285.792969 367.136719 281.019531 368.148438 275.898438 367.917969 C 271.296875 368.191406 266.78125 367.289062 262.421875 365.578125 C 261 365.019531 259.808594 365.105469 258.523438 365.9375 C 253.21875 369.355469 247.324219 371.175781 241.148438 372.246094 C 237.039062 372.957031 233.308594 372.09375 229.917969 369.785156 C 224.839844 366.320312 224.277344 361.324219 228.34375 356.664062 C 230.324219 354.398438 232.882812 352.96875 235.417969 351.417969 Z M 305.785156 256.285156 C 308.300781 251.835938 311.730469 248.277344 316.183594 245.652344 C 319.941406 243.441406 324.054688 242.558594 328.25 241.9375 C 330.382812 241.621094 332.59375 241.609375 334.734375 241.984375 C 336.742188 242.332031 337.089844 243.613281 335.726562 245.125 C 334.992188 245.941406 334.066406 246.496094 333.109375 247.019531 C 330.710938 248.339844 328.335938 249.699219 325.683594 251.195312 C 326.886719 252.117188 327.804688 251.855469 328.65625 251.878906 C 330.144531 251.925781 331.441406 252.238281 331.890625 253.871094 C 332.320312 255.414062 331.175781 256.203125 330.226562 257.050781 C 329.9375 257.308594 329.582031 257.503906 329.226562 257.667969 C 326.363281 258.988281 323.535156 260.398438 320.621094 261.589844 C 312.765625 264.796875 307.460938 270.234375 305.898438 278.71875 C 304.792969 284.738281 304.546875 290.84375 305.410156 296.949219 C 305.535156 297.820312 305.5625 298.714844 305.546875 299.597656 C 305.53125 300.613281 305.371094 301.640625 304.179688 301.941406 C 303.007812 302.238281 302.371094 301.464844 301.835938 300.574219 C 300.8125 298.859375 300.203125 296.992188 299.820312 295.046875 C 298.578125 288.683594 298.839844 282.308594 299.722656 275.941406 C 300.675781 269.066406 302.335938 262.386719 305.785156 256.285156 Z M 215.066406 271.210938 C 211.371094 269.074219 207.425781 267.539062 203.207031 266.75 C 201.851562 266.496094 200.476562 266.296875 199.148438 265.933594 C 195.347656 264.90625 194.5625 262.269531 197.144531 259.378906 C 198.632812 257.707031 198.648438 257.695312 197.035156 256.042969 C 195.9375 254.921875 195.207031 253.652344 195.640625 252.0625 C 196.089844 250.410156 197.523438 249.964844 199 249.550781 C 202.425781 248.585938 205.679688 249.277344 208.796875 250.632812 C 216.9375 254.171875 222.285156 260.339844 225.367188 268.574219 C 227.78125 275.039062 228.445312 281.78125 228.6875 290.128906 C 228.902344 292.28125 228 295.871094 227.820312 299.507812 C 227.738281 301.160156 227.160156 302.785156 226.773438 304.414062 C 226.65625 304.910156 226.34375 305.328125 225.773438 305.347656 C 225.203125 305.367188 224.871094 304.972656 224.695312 304.492188 C 224.527344 304.03125 224.464844 303.535156 224.332031 303.0625 C 223.675781 300.742188 223.917969 298.363281 223.839844 296.003906 C 223.683594 291.078125 223.410156 286.148438 222.15625 281.359375 C 221.050781 277.136719 218.980469 273.480469 215.066406 271.210938 Z M 400.859375 346.734375 C 392.851562 344.996094 385.105469 342.3125 377.214844 340.152344 C 367.507812 337.496094 357.71875 336.292969 347.679688 337.617188 C 346.324219 337.792969 344.925781 337.671875 343.550781 337.613281 C 342.953125 337.589844 342.375 337.332031 342.238281 336.632812 C 342.105469 335.949219 342.5625 335.53125 343.03125 335.164062 C 343.824219 334.546875 344.773438 334.246094 345.710938 333.949219 C 353.101562 331.632812 360.605469 331.21875 368.199219 332.679688 C 380.089844 334.964844 391.40625 338.921875 402.125 344.5625 C 403.398438 345.234375 404.6875 345.925781 405.699219 346.972656 C 405.605469 347.203125 405.511719 347.4375 405.417969 347.667969 C 403.898438 347.355469 402.375 347.0625 400.859375 346.734375 Z M 340.808594 364.46875 C 340.3125 364.152344 339.761719 363.820312 339.886719 363.105469 C 340.007812 362.398438 340.605469 362.191406 341.199219 362.121094 C 343.078125 361.902344 344.941406 361.957031 346.75 362.609375 C 350.832031 364.089844 354.832031 365.742188 358.609375 367.925781 C 367.761719 373.21875 376.578125 378.992188 384.613281 385.886719 C 387.355469 388.242188 390.414062 390.273438 392.816406 393.597656 C 391.179688 393.839844 390.308594 393.085938 389.378906 392.625 C 381.683594 388.789062 374.460938 384.171875 367.273438 379.472656 C 359.105469 374.132812 351.003906 368.648438 341.859375 365.011719 C 341.496094 364.867188 341.140625 364.679688 340.808594 364.46875 Z M 163.652344 377.578125 C 167.835938 373.125 172.113281 368.808594 177.46875 365.679688 C 185.265625 361.128906 193.570312 358.898438 202.617188 359.664062 C 203.105469 359.707031 203.609375 359.71875 204.074219 359.855469 C 205.097656 360.15625 205.84375 360.792969 205.855469 361.933594 C 205.867188 363.179688 204.984375 363.589844 203.917969 363.726562 C 202.257812 363.9375 200.601562 364.171875 198.9375 364.34375 C 192.714844 364.988281 186.789062 366.566406 181.148438 369.382812 C 176.46875 371.71875 172.035156 374.457031 167.507812 377.042969 C 166.257812 377.753906 165.058594 378.621094 163.136719 378.808594 C 163.429688 378.09375 163.472656 377.773438 163.652344 377.578125 Z M 214.777344 485.003906 C 215.269531 484.234375 215.796875 483.394531 216.855469 483.804688 C 217.878906 484.203125 217.816406 485.175781 217.675781 486.085938 C 217.628906 486.378906 217.523438 486.667969 217.511719 486.957031 C 217.328125 491.375 216.667969 495.839844 217.101562 500.195312 C 217.636719 505.566406 216.660156 510.792969 216.621094 516.089844 C 216.613281 516.757812 216.460938 517.464844 215.71875 518.121094 C 214.648438 517.425781 214.675781 516.363281 214.402344 515.460938 C 212.046875 507.679688 212.464844 499.683594 212.726562 491.71875 C 212.804688 489.371094 213.464844 487.050781 214.777344 485.003906 Z M 181.570312 402.417969 C 185.804688 396.789062 190.824219 391.945312 196.597656 387.890625 C 197.484375 387.265625 198.453125 386.753906 199.523438 386.503906 C 200.410156 386.292969 201.351562 386.238281 201.957031 387.074219 C 202.632812 387.996094 202.046875 388.765625 201.421875 389.425781 C 196.320312 394.785156 190.9375 399.851562 185.058594 404.347656 C 183.636719 405.4375 181.976562 406.367188 179.871094 406.59375 C 179.925781 404.824219 180.71875 403.550781 181.570312 402.417969 Z M 203.46875 374.980469 C 199.675781 377.082031 195.988281 379.390625 192.003906 381.125 C 189.738281 382.113281 187.367188 382.804688 184.917969 383.199219 C 184.425781 383.277344 183.898438 383.242188 183.625 382.738281 C 183.335938 382.199219 183.699219 381.773438 184.042969 381.433594 C 184.949219 380.535156 185.839844 379.59375 186.84375 378.8125 C 191.320312 375.320312 196.359375 372.859375 201.664062 370.910156 C 202.304688 370.671875 202.988281 370.546875 203.441406 370.425781 C 204.5 370.390625 205.277344 370.53125 205.6875 371.347656 C 206.152344 372.273438 205.824219 373.097656 205.128906 373.75 C 204.628906 374.21875 204.066406 374.648438 203.46875 374.980469 Z M 193.226562 594.503906 C 193.910156 594.460938 194.269531 594.984375 194.507812 595.546875 C 194.660156 595.90625 194.746094 596.296875 194.871094 596.667969 C 195.964844 599.949219 197.429688 603.046875 199.179688 606.042969 C 201.058594 609.265625 203.121094 612.414062 204.289062 616.011719 C 204.46875 616.558594 204.921875 617.203125 204.394531 617.652344 C 203.648438 618.285156 203.175781 617.445312 202.671875 617.0625 C 199.378906 614.570312 197.125 611.214844 195.140625 607.691406 C 193.445312 604.683594 191.996094 601.546875 191.835938 597.957031 C 191.878906 597.300781 191.882812 596.609375 191.984375 595.929688 C 192.085938 595.210938 192.394531 594.554688 193.226562 594.503906 Z M 174.960938 496.792969 C 176.304688 496.714844 176.605469 497.976562 176.890625 499.035156 C 176.96875 499.316406 176.988281 499.617188 177.007812 499.910156 C 177.472656 506.78125 177.851562 513.65625 177.632812 520.546875 C 177.597656 521.707031 177.613281 522.886719 176.53125 524.234375 C 176.207031 523.410156 176.03125 523.058594 175.925781 522.691406 C 173.734375 515.035156 173.273438 507.203125 173.519531 499.300781 C 173.554688 498.234375 173.503906 496.878906 174.960938 496.792969 Z M 209.566406 416.007812 C 210.84375 410.273438 214.015625 405.285156 215.953125 399.8125 C 216.21875 399.0625 216.78125 398.355469 217.703125 398.472656 C 218.816406 398.613281 218.972656 399.566406 219.066406 400.476562 C 219.097656 400.769531 219.070312 401.066406 219.070312 401.363281 C 219.105469 401.367188 219.140625 401.371094 219.175781 401.375 C 219.046875 402.25 219.011719 403.148438 218.777344 403.996094 C 217.65625 408.019531 215.816406 411.726562 213.53125 415.203125 C 212.777344 416.347656 211.820312 417.363281 210.910156 418.394531 C 210.597656 418.75 210.132812 419.117188 209.613281 418.789062 C 209.128906 418.484375 209.183594 417.949219 209.273438 417.457031 C 209.359375 416.972656 209.460938 416.488281 209.566406 416.007812 Z M 238.914062 506.207031 C 239.285156 505.625 239.75 505.027344 240.5625 505.226562 C 241.378906 505.429688 241.476562 506.164062 241.554688 506.859375 C 241.730469 508.453125 241.214844 509.980469 240.996094 511.527344 C 240.253906 516.78125 239.449219 522.03125 237.785156 527.09375 C 237.503906 527.957031 237.492188 529.070312 236.429688 529.414062 C 235.976562 529.292969 235.832031 529.023438 235.8125 528.726562 C 235.386719 521.617188 235.695312 514.582031 238.144531 507.792969 C 238.34375 507.242188 238.601562 506.699219 238.914062 506.207031 Z M 351.929688 350.214844 C 353.503906 350.136719 355.066406 350.175781 356.628906 350.480469 C 362.949219 351.714844 368.914062 353.980469 374.746094 356.632812 C 375.613281 357.027344 376.609375 357.300781 377.257812 358.359375 C 376.53125 359.175781 375.851562 358.765625 375.203125 358.695312 C 367.304688 357.800781 360.042969 354.601562 352.488281 352.453125 C 352.207031 352.371094 351.929688 352.253906 351.671875 352.109375 C 351.171875 351.828125 350.53125 351.574219 350.714844 350.835938 C 350.855469 350.257812 351.453125 350.242188 351.929688 350.214844 Z M 338.6875 384.277344 C 338.972656 384.347656 339.246094 384.472656 339.507812 384.613281 C 345.40625 387.820312 350.375 392.058594 354.058594 397.722656 C 354.320312 398.125 354.605469 398.550781 354.242188 399.230469 C 353.027344 399.351562 352.175781 398.503906 351.230469 397.863281 C 346.25 394.46875 342.226562 389.921875 337.367188 386.378906 C 336.726562 385.910156 335.410156 385.488281 335.980469 384.476562 C 336.535156 383.492188 337.75 384.035156 338.6875 384.277344 Z M 240.6875 636.058594 C 241.257812 635.695312 241.835938 635.804688 242.34375 636.171875 C 242.820312 636.519531 243.289062 636.894531 243.671875 637.339844 C 246.183594 640.246094 248.769531 643.082031 251.480469 645.808594 C 252.019531 646.351562 252.378906 647.097656 252.742188 647.792969 C 253.054688 648.390625 253.472656 649.082031 252.953125 649.71875 C 252.386719 650.410156 251.683594 649.972656 251.058594 649.722656 C 250.601562 649.539062 250.140625 649.339844 249.730469 649.074219 C 245.84375 646.582031 242.726562 643.363281 240.546875 639.277344 C 240.273438 638.765625 240.148438 638.175781 240.011719 637.785156 C 240 636.984375 240.125 636.417969 240.6875 636.058594 Z M 176.171875 455.933594 C 175.136719 455.804688 175.347656 454.746094 175.308594 454.007812 C 175.25 452.925781 175.292969 451.839844 175.292969 450.953125 C 175.132812 446.871094 175.785156 443.097656 176.84375 439.382812 C 177.167969 438.246094 177.546875 437.109375 178.449219 436.265625 C 179.085938 435.671875 179.808594 435.464844 180.597656 435.972656 C 181.269531 436.410156 181.441406 437.011719 181.160156 437.765625 C 180.007812 440.84375 179.816406 444.113281 179.246094 447.304688 C 178.808594 449.738281 178.207031 452.125 177.316406 454.429688 C 177.082031 455.035156 177.03125 456.039062 176.171875 455.933594 Z M 237.652344 569.183594 C 237.910156 568.75 238.304688 568.410156 238.863281 568.503906 C 239.433594 568.597656 239.640625 569.054688 239.730469 569.554688 C 239.796875 569.941406 239.808594 570.339844 239.828125 570.734375 C 240.132812 576.460938 239.460938 582.152344 239.09375 587.851562 C 239.027344 588.882812 238.914062 590.003906 237.953125 591.289062 C 237.648438 590.605469 237.4375 590.269531 237.34375 589.90625 C 235.707031 583.46875 236.144531 577 237.078125 570.527344 C 237.144531 570.058594 237.40625 569.601562 237.652344 569.183594 Z M 202.722656 586.902344 C 200.308594 584.625 198.828125 581.695312 197.300781 578.835938 C 196.023438 576.441406 194.773438 573.96875 194.652344 571.011719 C 195.617188 570.941406 195.988281 571.292969 196.304688 571.652344 C 200.039062 575.902344 202.914062 580.726562 205.617188 585.660156 C 205.90625 586.1875 206.023438 586.78125 205.859375 587.382812 C 205.636719 588.1875 205.089844 588.601562 204.316406 588.203125 C 203.71875 587.894531 203.222656 587.375 202.722656 586.902344 Z M 202.722656 586.902344 " fill-opacity="1" fill-rule="nonzero"/><path fill="#c9836d" d="M 282.980469 139.105469 C 282.972656 144.226562 282.273438 149.339844 282.53125 154.476562 C 283.011719 164.023438 283.097656 173.59375 284.324219 183.09375 C 284.375 183.488281 284.445312 183.875 284.515625 184.265625 C 285.019531 187.050781 285.011719 187.097656 287.773438 187.550781 C 299.800781 189.519531 310.5 194.636719 320.546875 201.3125 C 321.527344 201.964844 322.394531 202.789062 323.324219 203.519531 C 324.171875 204.183594 324.800781 203.988281 325.082031 202.964844 C 325.371094 201.917969 325.570312 200.847656 325.804688 199.789062 C 326.613281 196.125 327.460938 192.488281 329.246094 189.125 C 331.5625 184.761719 334.90625 181.59375 339.492188 179.726562 C 346.734375 176.78125 354.316406 174.90625 361.796875 172.730469 C 367.574219 171.050781 373.429688 169.679688 378.96875 167.203125 C 384.121094 164.898438 387.597656 161.546875 389.367188 155.929688 C 393.148438 143.914062 395.46875 131.648438 396.894531 119.175781 C 397.902344 110.355469 398.578125 101.511719 398.648438 91.042969 C 398.140625 77.042969 397.394531 61.488281 393.902344 46.210938 C 391.886719 37.398438 388.921875 28.9375 383.972656 21.320312 C 380.746094 16.351562 376.878906 11.910156 372.429688 7.910156 C 368.75 4.597656 364.785156 3.753906 360.128906 4.675781 C 353.933594 5.90625 348.324219 8.496094 342.96875 11.734375 C 324.34375 22.988281 309.796875 38.042969 300.265625 57.707031 C 295.027344 68.507812 291.742188 79.988281 288.996094 91.628906 C 286.363281 102.789062 284.785156 114.121094 283.800781 125.523438 C 283.410156 130.035156 282.984375 134.554688 282.980469 139.105469 Z M 136.1875 33.335938 C 136.429688 29.136719 137.09375 24.976562 138.9375 21.105469 C 139.519531 27.949219 139.964844 34.710938 140.972656 41.4375 C 142.917969 54.429688 146.644531 66.835938 152.855469 78.4375 C 156.300781 84.871094 159.925781 91.207031 163.425781 97.613281 C 166.734375 103.675781 169.867188 109.824219 172.632812 116.160156 C 176.40625 124.789062 178.449219 133.964844 181.164062 142.921875 C 186.226562 159.628906 190.78125 176.496094 196.832031 192.882812 C 199.625 200.453125 202.261719 208.152344 207.453125 214.578125 C 208.132812 215.417969 208.761719 216.308594 209.378906 217.199219 C 210.003906 218.097656 210.085938 219.058594 209.394531 219.945312 C 207.332031 222.605469 205.773438 225.585938 203.945312 228.394531 C 202.757812 230.222656 201.9375 230.300781 200.453125 228.726562 C 198.835938 227.007812 197.320312 225.175781 195.886719 223.296875 C 189.007812 214.269531 182.441406 205.019531 176.472656 195.363281 C 171.308594 187.015625 167.292969 178.148438 164.359375 168.777344 C 160.808594 157.441406 158.871094 145.769531 156.871094 134.101562 C 154.457031 120.007812 151.980469 105.929688 147.675781 92.238281 C 144.421875 81.886719 141.417969 71.460938 138.855469 60.910156 C 136.652344 51.832031 135.652344 42.65625 136.1875 33.335938 Z M 242.722656 347.351562 C 244.386719 347.675781 245.902344 348.394531 247.402344 349.148438 C 250.484375 350.703125 253.644531 352.070312 256.835938 353.382812 C 259.488281 354.472656 261.734375 354.074219 263.996094 352.34375 C 267.433594 349.707031 271.007812 347.246094 274.539062 344.730469 C 275.257812 344.21875 276.003906 343.71875 276.804688 343.359375 C 277.832031 342.898438 278.945312 342.804688 279.894531 343.542969 C 280.882812 344.3125 280.871094 345.425781 280.628906 346.523438 C 280.238281 348.28125 279.449219 349.851562 278.421875 351.328125 C 275.273438 355.863281 271.113281 359.292969 266.5 362.210938 C 264.707031 363.34375 262.660156 363.695312 260.542969 363.800781 C 260.074219 363.753906 259.574219 363.753906 259.097656 363.65625 C 253.328125 362.476562 247.941406 360.394531 243.214844 356.816406 C 241.566406 355.566406 239.921875 354.296875 238.96875 352.367188 C 238.320312 351.058594 238 349.753906 238.984375 348.480469 C 239.949219 347.226562 241.289062 347.070312 242.722656 347.351562 Z M 242.722656 347.351562 " fill-opacity="1" fill-rule="nonzero"/><path fill="#262f33" d="M 316.109375 593.929688 C 315.15625 601.507812 315.183594 609.074219 316.136719 616.640625 C 317.363281 626.421875 318.425781 636.242188 320.96875 645.796875 C 324.699219 659.820312 329.40625 673.53125 334.640625 687.058594 C 334.820312 687.519531 335.015625 687.972656 335.234375 688.414062 C 336.269531 690.507812 337.496094 691.472656 338.65625 691.128906 C 339.851562 690.769531 340.300781 689.257812 339.820312 686.972656 C 339.597656 685.914062 339.3125 684.859375 338.972656 683.832031 C 337.539062 679.53125 336.070312 675.238281 334.621094 670.941406 C 330.835938 659.722656 327.09375 648.476562 325.089844 636.78125 C 323.308594 626.390625 321.503906 615.980469 321.507812 601.539062 C 322.035156 587.390625 326.207031 570.488281 336.089844 555.195312 C 340.597656 548.214844 345.351562 541.441406 351.375 535.675781 C 366.414062 521.277344 383.929688 511.921875 404.863281 509.460938 C 412.316406 508.585938 419.769531 507.871094 427.269531 507.851562 C 433.980469 507.835938 440.664062 508.472656 447.328125 509.210938 C 448.113281 509.296875 448.898438 509.4375 449.679688 509.441406 C 450.78125 509.449219 452.039062 509.402344 452.277344 508.042969 C 452.503906 506.75 451.441406 506.105469 450.414062 505.695312 C 449.136719 505.1875 447.816406 504.757812 446.484375 504.40625 C 442.273438 503.308594 437.972656 502.6875 433.648438 502.316406 C 420.082031 501.152344 406.660156 502.207031 393.363281 505.058594 C 386.96875 506.429688 380.808594 508.480469 374.949219 511.40625 C 373.890625 511.9375 372.84375 512.5 371.773438 512.996094 C 369.984375 513.828125 369.824219 513.734375 369.632812 511.769531 C 368.984375 504.992188 367.980469 498.265625 366.667969 491.589844 C 365.71875 486.742188 364.566406 481.945312 362.570312 477.402344 C 362.082031 476.289062 361.859375 474.347656 360.449219 474.59375 C 358.71875 474.898438 359.425781 476.875 359.347656 478.140625 C 358.976562 484.183594 359.871094 490.140625 360.757812 496.09375 C 361.726562 502.625 362.617188 509.171875 363.71875 515.683594 C 364.019531 517.464844 363.179688 518.179688 361.980469 518.984375 C 356.320312 522.796875 350.902344 526.941406 346.234375 531.929688 C 329.808594 549.480469 319.136719 569.851562 316.109375 593.929688 Z M 333.929688 257.691406 C 335.230469 257.855469 336.441406 258.226562 337.433594 259.113281 C 338.363281 259.949219 338.964844 260.929688 338.550781 262.246094 C 338.183594 263.421875 337.289062 264.007812 336.140625 264.132812 C 334.769531 264.277344 333.386719 264.277344 332.011719 264.367188 C 329.871094 264.503906 327.769531 264.792969 325.6875 265.9375 C 326.816406 267.40625 327.992188 268.621094 328.800781 270.039062 C 333.71875 278.632812 333.375 287.316406 328.933594 295.964844 C 328.40625 296.988281 327.554688 297.890625 326.71875 298.707031 C 323.90625 301.460938 320.636719 301.808594 317.285156 299.777344 C 314.308594 297.972656 312.332031 295.320312 310.917969 292.203125 C 310.53125 291.351562 310.15625 290.492188 309.777344 289.640625 C 309.296875 291.164062 309.273438 292.605469 309.152344 294.039062 C 308.988281 296.003906 308.839844 297.996094 307.757812 299.722656 C 307.054688 300.84375 306.214844 300.871094 305.394531 299.839844 C 304.382812 298.5625 303.941406 297.015625 303.824219 295.441406 C 303.292969 288.207031 303.691406 281.0625 306.320312 274.195312 C 310.492188 263.289062 322.300781 256.25 333.929688 257.691406 Z M 198.539062 264.113281 C 199.449219 263.644531 200.433594 263.605469 201.425781 263.578125 C 205.984375 263.464844 210.195312 264.78125 214.191406 266.835938 C 219.085938 269.355469 222.492188 273.257812 223.949219 278.550781 C 226.113281 286.417969 226.375 294.484375 225.816406 302.589844 C 225.75 303.585938 225.492188 304.539062 224.960938 305.398438 C 223.761719 307.34375 222.128906 307.625 220.71875 305.820312 C 219.707031 304.523438 219.0625 304.726562 217.824219 305.375 C 213.703125 307.535156 209.867188 306.53125 207.195312 302.765625 C 206.738281 302.121094 206.304688 301.453125 205.96875 300.742188 C 203.746094 296.046875 202.488281 291.113281 202.414062 285.328125 C 202.640625 281 203.359375 276.261719 206.640625 272.328125 C 207.472656 271.332031 207.222656 270.753906 206.097656 270.390625 C 204.691406 269.9375 203.277344 269.503906 201.859375 269.085938 C 200.816406 268.78125 199.757812 268.539062 198.71875 268.234375 C 197.816406 267.96875 197.074219 267.476562 197.015625 266.433594 C 196.953125 265.308594 197.597656 264.601562 198.539062 264.113281 Z M 237.882812 350.695312 C 238.628906 350.148438 239.378906 350.316406 240.074219 350.8125 C 240.390625 351.039062 240.703125 351.300781 240.945312 351.605469 C 244.351562 355.847656 249.175781 357.949219 253.933594 360.105469 C 258.960938 362.382812 263.695312 361.886719 268.082031 358.410156 C 272.464844 354.9375 276.308594 351.050781 278.417969 345.726562 C 278.78125 344.820312 279.261719 343.789062 280.523438 344.074219 C 281.667969 344.332031 281.929688 345.351562 282.035156 346.367188 C 282.222656 348.1875 281.820312 349.894531 281.027344 351.523438 C 277.980469 357.808594 273.117188 362.285156 266.964844 365.382812 C 264.265625 366.738281 264.296875 366.363281 265.046875 369.601562 C 265.777344 372.769531 266.613281 375.917969 267.210938 379.113281 C 268.035156 383.53125 270.808594 386.273438 275.277344 386.765625 C 276.257812 386.875 277.25 386.84375 278.230469 386.960938 C 279.246094 387.082031 280.21875 387.425781 280.472656 388.5625 C 280.757812 389.839844 279.941406 390.621094 278.949219 391.15625 C 277.4375 391.96875 275.796875 392.25 274.082031 392.019531 C 271.460938 391.671875 269.152344 390.605469 267.164062 388.902344 C 266.066406 387.960938 265.429688 388.019531 264.664062 389.320312 C 262.871094 392.386719 259.800781 393.089844 256.378906 393.453125 C 255.78125 393.316406 254.984375 393.230469 254.257812 392.957031 C 252.707031 392.375 252.542969 391.382812 253.871094 390.390625 C 254.570312 389.871094 255.410156 389.515625 256.226562 389.179688 C 260.929688 387.238281 262.398438 384.355469 261.109375 379.347656 C 260.25 376.007812 259.210938 372.699219 258.765625 369.273438 C 258.527344 367.417969 257.628906 366.582031 255.902344 366.050781 C 251.53125 364.707031 247.636719 362.34375 243.796875 359.925781 C 241.863281 358.707031 240.289062 357.058594 238.773438 355.363281 C 238.113281 354.628906 237.554688 353.808594 237.304688 352.828125 C 237.097656 352.015625 237.136719 351.242188 237.882812 350.695312 Z M 518.875 582.445312 C 521.222656 573.28125 523.996094 564.21875 525.804688 554.917969 C 526.054688 553.628906 526.59375 552.640625 528.027344 552.582031 C 529.394531 552.527344 530.222656 553.355469 530.683594 554.550781 C 531.195312 555.867188 531.21875 557.21875 531.003906 558.625 C 529.441406 568.8125 526.410156 578.59375 522.789062 588.210938 C 521.433594 591.808594 519.917969 595.34375 518.066406 598.726562 C 517.785156 599.242188 517.425781 599.851562 516.738281 599.648438 C 516.0625 599.449219 516.070312 598.757812 516.078125 598.152344 C 516.585938 592.84375 517.550781 587.609375 518.875 582.445312 Z M 591.722656 656.257812 C 593.488281 645.605469 597.53125 635.648438 601.144531 625.566406 C 601.804688 623.730469 603.027344 623.0625 604.195312 623.378906 C 605.457031 623.722656 606.050781 625.089844 605.800781 627.074219 C 605.773438 627.269531 605.730469 627.460938 605.6875 627.652344 C 603.25 637.933594 599.988281 647.90625 594.558594 657.058594 C 594.257812 657.566406 593.9375 658.0625 593.585938 658.535156 C 593.238281 659 592.875 659.550781 592.160156 659.269531 C 591.605469 659.054688 591.640625 658.5 591.59375 658.019531 C 591.578125 657.824219 591.59375 657.625 591.59375 657.375 C 591.628906 657.039062 591.65625 656.644531 591.722656 656.257812 Z M 549.160156 663.238281 C 550.484375 656.226562 553.058594 649.59375 555.425781 642.902344 C 556.511719 639.835938 557.667969 636.792969 558.84375 633.757812 C 559.214844 632.792969 559.890625 631.992188 561.066406 632.191406 C 562.21875 632.382812 562.585938 633.347656 562.726562 634.371094 C 562.960938 636.078125 562.53125 637.722656 562.0625 639.324219 C 559.984375 646.429688 557.679688 653.464844 554.464844 660.148438 C 553.3125 662.539062 551.863281 664.792969 550.507812 667.078125 C 550.222656 667.558594 549.785156 668.117188 549.082031 667.75 C 548.585938 667.492188 548.59375 666.945312 548.617188 666.332031 C 548.785156 665.375 548.957031 664.304688 549.160156 663.238281 Z M 598.949219 514.324219 C 598.921875 513.582031 599.191406 512.960938 599.925781 512.664062 C 600.539062 512.417969 601.089844 512.640625 601.578125 513.015625 C 602.542969 513.761719 603.085938 514.816406 603.625 515.871094 C 605.335938 519.222656 606.449219 522.800781 607.554688 526.375 C 609.574219 532.890625 610.871094 539.546875 611.375 545.859375 C 611.375 546.941406 611.402344 547.535156 611.363281 548.125 C 611.335938 548.601562 611.332031 549.15625 610.746094 549.339844 C 610.15625 549.523438 609.804688 549.085938 609.582031 548.667969 C 609.070312 547.714844 608.613281 546.730469 608.183594 545.738281 C 603.984375 536.113281 602.21875 525.753906 599.183594 515.773438 C 599.042969 515.308594 598.96875 514.808594 598.949219 514.324219 Z M 501.671875 392.617188 C 501.125 392.050781 500.609375 391.449219 500.128906 390.828125 C 499.765625 390.363281 499.4375 389.808594 499.898438 389.234375 C 500.269531 388.773438 500.796875 388.964844 501.269531 389.078125 C 501.460938 389.125 501.644531 389.199219 501.824219 389.28125 C 511.167969 393.527344 519.460938 399.261719 526.5 406.753906 C 527.246094 407.546875 527.84375 408.472656 528.070312 409.5625 C 528.316406 410.734375 527.695312 411.625 526.570312 411.695312 C 525.503906 411.636719 524.644531 410.941406 523.777344 410.308594 C 519.484375 407.167969 515.226562 403.976562 510.90625 400.875 C 507.527344 398.449219 504.535156 395.605469 501.671875 392.617188 Z M 648.902344 523.769531 C 650.03125 523.558594 650.828125 524.222656 651.238281 525.183594 C 651.699219 526.261719 652.0625 527.398438 652.3125 528.542969 C 653.671875 534.824219 654.082031 541.191406 653.976562 547.601562 C 653.976562 549.964844 653.992188 552.324219 653.96875 554.6875 C 653.960938 555.46875 653.898438 556.261719 653.765625 557.03125 C 653.667969 557.589844 653.550781 558.261719 652.785156 558.292969 C 652.191406 558.316406 651.972656 557.800781 651.789062 557.355469 C 651.53125 556.71875 651.296875 556.066406 651.128906 555.402344 C 650.609375 553.304688 650.058594 551.207031 649.632812 549.085938 C 648.199219 541.933594 648.113281 534.625 647.253906 527.402344 C 647.199219 526.917969 647.21875 526.417969 647.253906 525.929688 C 647.335938 524.859375 647.769531 523.976562 648.902344 523.769531 Z M 574.910156 465.015625 C 573.054688 462.84375 571.199219 460.671875 569.386719 458.46875 C 568.667969 457.59375 568.160156 456.574219 569.105469 455.550781 C 569.984375 454.59375 571.074219 454.769531 572.085938 455.332031 C 572.855469 455.761719 573.617188 456.242188 574.277344 456.824219 C 580.90625 462.679688 586.53125 469.34375 590.542969 477.28125 C 590.847656 477.886719 591.097656 478.539062 591.253906 479.199219 C 591.351562 479.609375 591.058594 479.925781 590.566406 480 C 589.746094 479.9375 589.179688 479.355469 588.558594 478.886719 C 583.324219 474.9375 579.136719 469.953125 574.910156 465.015625 Z M 564.335938 550.320312 C 563.910156 550.335938 563.632812 549.953125 563.507812 549.582031 C 562.835938 547.625 562.140625 545.675781 561.5625 543.691406 C 559.007812 534.964844 558.089844 525.90625 556.167969 517.050781 C 556.046875 516.484375 556.054688 515.867188 556.125 515.289062 C 556.222656 514.441406 556.683594 513.796875 557.574219 513.644531 C 558.335938 513.511719 558.90625 513.914062 559.320312 514.519531 C 560.230469 515.84375 560.625 517.382812 561.042969 518.898438 C 563.523438 527.871094 564.445312 537.082031 565.132812 545.632812 C 565.132812 547.308594 565.148438 548.292969 565.125 549.277344 C 565.109375 549.789062 564.949219 550.296875 564.335938 550.320312 Z M 437.796875 394.382812 C 434.703125 393.320312 431.804688 391.855469 429.058594 390.089844 C 428.398438 389.664062 427.75 389.1875 427.222656 388.613281 C 426.621094 387.960938 426.804688 387.320312 427.664062 387.03125 C 428.121094 386.875 428.632812 386.878906 428.921875 386.839844 C 429.417969 386.863281 429.714844 386.863281 430.007812 386.894531 C 438.253906 387.832031 445.882812 390.710938 453.257812 394.359375 C 453.777344 394.617188 454.261719 394.996094 454.675781 395.40625 C 455.257812 395.984375 455.605469 396.699219 455.265625 397.546875 C 454.933594 398.371094 454.222656 398.683594 453.394531 398.777344 C 452.394531 398.894531 451.4375 398.65625 450.480469 398.410156 C 446.175781 397.300781 441.992188 395.828125 437.796875 394.382812 Z M 573.867188 712.273438 C 575.96875 709.664062 578.175781 707.136719 580.367188 704.597656 C 580.890625 703.996094 581.574219 703.480469 582.441406 703.921875 C 583.230469 704.324219 583.460938 705.078125 583.425781 706.253906 C 583.265625 706.691406 583.050781 707.453125 582.726562 708.160156 C 581.734375 710.335938 580.230469 712.179688 578.785156 714.050781 C 575.035156 718.886719 571.253906 723.699219 566.628906 727.753906 C 565.710938 728.558594 564.554688 730.136719 563.46875 729.367188 C 562.195312 728.464844 563.640625 727.066406 564.140625 725.996094 C 566.554688 720.84375 570.34375 716.648438 573.867188 712.273438 Z M 628.679688 650.367188 C 630.761719 642.375 634.972656 635.339844 638.734375 628.105469 C 639.085938 627.429688 639.691406 626.863281 640.253906 626.320312 C 640.777344 625.816406 641.460938 625.636719 642.160156 625.96875 C 642.851562 626.300781 643.199219 626.949219 643.136719 627.65625 C 643.0625 628.527344 642.890625 629.417969 642.589844 630.238281 C 639.769531 637.941406 636.214844 645.261719 631.242188 651.835938 C 630.769531 652.460938 630.226562 653.035156 629.695312 653.613281 C 629.417969 653.914062 629.046875 654.082031 628.636719 653.925781 C 628.207031 653.765625 628.132812 653.375 628.160156 652.5625 C 628.273438 652.085938 628.457031 651.222656 628.679688 650.367188 Z M 605.65625 450.5625 C 605.171875 450.558594 604.167969 449.894531 602.789062 448.558594 C 597.308594 443.25 593.3125 436.777344 588.882812 430.648438 C 588.710938 430.414062 588.589844 430.136719 588.464844 429.871094 C 588.0625 428.984375 588.097656 428.132812 588.789062 427.410156 C 589.597656 426.574219 590.542969 426.636719 591.488281 427.15625 C 592.449219 427.683594 593.277344 428.386719 593.972656 429.21875 C 598.601562 434.75 602.675781 440.632812 605.574219 447.273438 C 605.890625 447.988281 606.132812 448.742188 606.339844 449.496094 C 606.492188 450.046875 606.242188 450.4375 605.65625 450.5625 Z M 494.308594 436.539062 C 495.425781 435.578125 496.902344 435.828125 498.71875 437.597656 C 502.824219 441.597656 506.425781 445.996094 508.960938 451.179688 C 509.261719 451.792969 509.503906 452.445312 509.667969 453.105469 C 509.800781 453.644531 509.5 454.03125 508.925781 454.183594 C 508.007812 454.09375 507.320312 453.507812 506.601562 453.007812 C 501.867188 449.691406 498.125 445.414062 494.832031 440.722656 C 493.34375 438.597656 493.25 437.449219 494.308594 436.539062 Z M 494.308594 436.539062 " fill-opacity="1" fill-rule="nonzero"/></svg>