<svg width="1080" height="143" viewBox="0 0 1080 143" fill="none" xmlns="http://www.w3.org/2000/svg">
<mask id="mask0_15_25" style="mask-type:luminance" maskUnits="userSpaceOnUse" x="339" y="0" width="741" height="140">
<path d="M339.167 0H1079.9V139.844H339.167V0Z" fill="white"/>
</mask>
<g mask="url(#mask0_15_25)">
<path d="M339.167 138.807H1079.99C1076.25 133.089 1069.96 129.771 1063.95 123.917C1055.96 116.151 1050.1 106.057 1043.53 96.6667C1041.41 92.2917 1038.58 88.2708 1035.04 84.9531C1033.91 83.8906 1032.78 82.9063 1032.01 81.6354C1031.3 80.2917 1031.02 78.599 1031.79 77.3281C1031.3 76.4115 1030.09 76.1302 1029.04 76.1979C1027.91 76.2708 1026.84 76.4792 1025.85 75.9844C1024.86 75.5625 1024.37 74.0833 1025.22 73.4479H1023.52C1023.59 71.8229 1023.95 70.2708 1024.66 68.8594C1023.17 69.776 1021.69 70.6198 1020.13 71.5417C1012.57 64.9063 1004.51 58.7656 996.031 53.3281C994.969 52.625 993.771 51.9896 992.635 51.2813C995.891 45.849 998.573 40.0573 1000.48 34.0573C996.526 39.2813 991.365 43.5885 985.641 46.8333C987.052 42.2448 988.328 37.6563 989.318 33C986.771 36.9531 984.229 40.974 981.682 44.9271C979.984 44.0104 978.219 43.1667 976.453 42.2448C976.172 32.224 976.594 22.2031 979.422 12.6719C973.698 20.0833 969.031 28.4115 965.641 37.1667C958.714 34.1302 951.786 31.375 944.578 29.1198C932.844 25.3073 920.901 22.5521 908.745 20.5781C908.745 18.8854 908.885 17.1875 908.745 15.4948C907.969 17.1875 906.766 18.7396 905.422 20.0104C905.141 19.375 904.927 18.7396 904.646 18.1771C904.432 18.7396 904.151 19.2344 903.797 19.8021C903.443 19.7292 903.161 19.6615 902.807 19.6615C901.323 18.3177 899.771 16.9792 898.073 15.9896C898.073 16.9792 898.005 18.0365 898.005 19.026C878.849 16.6979 859.411 16.4115 840.047 17.7552C839.766 13.4479 838.849 9.14063 837.078 5.11979C837.646 9.42708 837.292 13.8021 836.516 18.1094C836.234 18.1094 836.021 18.1094 835.74 18.1771C835.385 15.9167 835.031 13.6615 834.677 11.401C834.323 13.7292 833.901 16.0625 833.547 18.3177C833.193 18.3906 832.839 18.3906 832.484 18.4583C830.01 12.8854 827.964 7.23438 826.406 1.38021C825.349 6.74479 825.068 12.25 825.417 17.6823C818.422 8.4375 807.469 2.08333 795.875 1.09375C803.932 3 809.943 10.1302 812.417 18.0365C812.766 18.9531 812.839 19.8698 813.052 20.7865C802.589 22.4115 792.198 24.3906 781.88 26.7865C781.672 26.224 781.385 25.6615 781.031 25.1667C780.964 25.8698 780.682 26.5052 780.328 27.2135C779.693 27.3542 778.984 27.4948 778.276 27.6354C777.573 27.3542 776.865 27.0729 776.156 26.7865C775.943 26.7188 775.734 26.6458 775.521 26.7188C775.026 26.8594 775.026 27.4948 775.099 27.9896V28.4844C774.604 28.625 774.177 28.7656 773.682 28.9063C771.141 28.6927 768.526 28.3438 766.052 27.7083C766.474 28.6927 766.474 29.8229 766.193 30.9531C749.797 35.4688 733.682 40.7656 717.781 46.9063C718.344 40.9792 718.911 34.974 719.547 29.0469C716.437 33.2135 713.823 37.5885 711.276 42.1042C710.427 36.5313 709.156 30.9531 707.318 25.5885C707.885 33.5625 707.745 41.5417 707.177 49.5156C699.547 35.401 685.974 24.4583 670.354 20.4375C681.521 28.0573 689.859 39.4948 694.245 52.1979C690.5 48.7396 686.047 45.9167 681.24 44.0833C684.703 48.2448 687.318 53.0469 689.016 58.1979C672.266 64.1979 654.807 67.375 637.208 67.7292C636.714 66.6667 636.359 65.5417 636.432 64.4115C635.51 65.4688 634.661 66.599 633.818 67.6563H632.828C632.12 66.0365 631.411 64.4792 630.708 62.8594C630.495 64.6927 629.573 66.2448 628.375 67.5885H627.667C626.958 66.8125 626.255 66.0365 625.62 65.1875C625.474 66.0365 625.125 66.8125 624.771 67.5885C623.922 67.5156 623.141 67.375 622.297 67.3021C620.318 65.3281 618.552 63.1406 617.135 60.7396C615.651 63.2083 613.177 65.0469 610.495 66.1771C600.458 64.7656 590.562 62.5781 580.807 59.4688C580.599 59.401 580.385 59.3281 580.172 59.2604C569.146 55.8021 557.766 52.7656 546.318 50.4323C547.661 42.8802 548.437 35.3281 548.51 27.6354C546.672 34.1302 543.844 40.1979 540.172 45.849C540.38 43.5156 540.453 41.2604 540.312 39C538.047 41.401 536.073 44.0104 534.302 46.7656C533.385 45.0729 532.464 43.375 531.547 41.7552C531.62 43.7292 531.62 45.776 531.687 47.8229C530.839 47.6823 530.062 47.5417 529.286 47.4688C528.578 43.375 528.016 39.3542 527.87 35.1875C526.599 39 525.469 42.8802 524.411 46.7656C518.12 46.0573 511.901 45.7083 505.609 45.5625C505.115 45.0729 504.547 44.5052 503.984 44.0104C503.135 44.5781 502.219 45 501.297 45.4219C500.734 45.0729 500.167 44.6458 499.672 44.2917C499.672 44.7188 499.531 45.1406 499.458 45.4948C497.766 45.5625 496.068 45.4948 494.37 45.5625C494.797 44.5052 495.219 43.5156 495.646 42.4583C494.797 43.7292 493.807 44.7865 492.677 45.7083C492.042 45.776 491.333 45.849 490.625 45.9167C490.417 45.7083 490.271 45.5625 490.062 45.4219C489.635 45.1406 489.141 44.7865 488.646 44.8594C488.01 44.9271 487.729 45.5625 487.448 46.1302C480.448 46.7656 473.521 47.6823 466.667 49.2344C452.531 52.5521 439.245 57.9896 426.521 64.7656C426.38 64.3385 426.099 64.0573 425.885 63.7031C425.182 57.849 426.38 51.6354 430.411 47.401C426.521 49.9427 423.839 54.0365 422.635 58.4844C419.453 53.75 415.99 49.2344 412.531 44.7865C416.062 52.1302 418.255 60.1042 419.031 68.224C417.406 66.3854 415.781 64.4792 414.156 62.5781C415.146 65.0469 416.135 67.5156 417.052 70.0573C416.698 70.2708 416.417 70.4792 416.062 70.6198C412.245 67.3021 408.995 63.2813 406.521 58.8333C408.359 63.5625 410.479 68.151 412.812 72.6719C408.573 75.2813 404.401 78.1042 400.229 80.9271C399.312 79.9375 398.323 78.9531 397.333 77.9635C397.474 79.7292 397.12 81.4948 396.625 83.1875C396.203 82.4115 395.849 81.7031 395.427 80.9271C395.427 82.1979 395.286 83.401 395.073 84.599C394.859 84.7396 394.651 84.8802 394.437 85.0938C393.448 84.599 392.318 84.2448 391.182 84.1042C391.823 84.7396 392.385 85.5156 392.953 86.151C381.292 94.6927 370.052 103.87 359.026 112.974C350.547 119.964 341.359 128.432 339.167 138.807Z" fill="#93C808"/>
</g>
<path d="M993.693 97.4531C993.781 97.4531 993.875 97.4375 993.974 97.4115C995.099 97.0938 996.359 97.1302 997.656 97.1927C998.708 97.224 999.787 97.2656 1000.9 97.1198C1002.71 96.8698 1004.52 95.7344 1005.39 94.2969C1006.01 93.276 1006.15 92.1354 1005.78 91.0833C1005.16 89.4115 1003.54 88.5781 1002.38 88.0938C999.703 86.9688 996.833 86.375 993.917 86.4896C995.083 83.2448 994.109 79.2969 991.375 77.1146C988.578 74.8854 984.406 74.8542 981.49 76.8021C981.031 75.2812 980.484 73.8906 979.609 72.6146C978.177 70.5312 976.047 69.2917 973.917 69.2917H973.912C972.583 69.2969 971.224 69.8854 970.266 70.8594C970.089 71.0417 969.932 71.2344 969.792 71.4323C968.292 69.151 966.344 67.1615 964.089 65.6094C962.047 64.1979 960.156 63.4792 958.313 63.4062C955.88 63.2917 953.557 64.5312 952.583 66.4531C951.99 67.5937 951.932 69.0365 952.438 70.2969C952.891 71.4323 953.719 72.2604 954.76 72.6302C955.292 72.8229 955.885 72.5365 956.078 72.0052C956.266 71.4687 955.984 70.8854 955.453 70.6927C954.802 70.4635 954.479 69.8698 954.354 69.5417C954.068 68.8385 954.094 68.0104 954.417 67.3854C955.13 65.9792 956.974 65.4062 958.234 65.4583C959.672 65.5156 961.203 66.1198 962.912 67.3021C965.531 69.099 967.672 71.5365 969.12 74.3542C969.333 74.7865 969.776 75.0104 970.292 74.8802C970.75 74.7656 971.073 74.3385 971.063 73.8594C971.047 73.3177 971.287 72.7552 971.745 72.2917C972.313 71.7135 973.141 71.349 973.912 71.349C973.917 71.349 973.917 71.349 973.917 71.349C975.63 71.349 977.109 72.6042 977.922 73.7812C978.896 75.2031 979.406 76.9323 979.932 78.8854C980.026 79.2448 980.318 79.526 980.677 79.6146C981.042 79.6927 981.427 79.5885 981.677 79.3229C983.766 77.0885 987.698 76.8125 990.089 78.7187C992.479 80.6302 993.068 84.5208 991.344 87.0521C991.12 87.3854 991.109 87.8125 991.313 88.1615C991.531 88.5052 991.906 88.7604 992.313 88.651C995.5 88.3229 998.667 88.7708 1001.58 89.9896C1002.88 90.526 1003.59 91.0885 1003.84 91.7813C1004 92.2448 1003.93 92.7344 1003.63 93.2344C1003.07 94.1563 1001.83 94.9167 1000.62 95.0781C999.688 95.2083 998.74 95.1719 997.734 95.1354C996.339 95.0677 994.865 95.026 993.412 95.4375C992.865 95.5885 992.552 96.1563 992.703 96.7031C992.833 97.1563 993.24 97.4531 993.693 97.4531Z" fill="#6D9826"/>
<path d="M893.635 54.6511C893.969 54.6511 894.286 54.4949 894.49 54.2032C895.849 52.2188 896.323 49.6094 895.792 47.0469C895.255 44.4844 893.776 42.2761 891.724 40.9948C889.682 39.7136 887.062 39.3438 884.5 39.9948C882.458 40.5105 880.661 41.6303 879.417 43.1407C877.594 41.0886 875.203 38.7448 872.094 38.0157C869.958 37.5157 867.474 38.1355 865.766 39.5938C864.937 40.3021 864.375 41.1511 864.089 42.0678C856.901 38.2709 847.526 39.1303 841.208 44.3542C840.776 44.7136 840.714 45.3594 841.073 45.7969C841.453 46.2344 842.089 46.2969 842.531 45.9376C848.469 41.0157 857.875 40.448 864.37 44.6094C864.693 44.823 865.115 44.8282 865.453 44.6251C865.792 44.4219 865.979 44.0469 865.953 43.6615C865.854 42.4896 866.531 41.6511 867.109 41.1563C868.307 40.1251 870.115 39.6667 871.63 40.0157C874.385 40.6615 876.474 42.8751 878.734 45.4792C878.958 45.7344 879.286 45.8386 879.609 45.8334C879.948 45.8021 880.245 45.6094 880.406 45.323C881.328 43.7084 883.005 42.4896 885.005 41.9896C886.995 41.474 889.062 41.7553 890.63 42.7344C892.208 43.7188 893.354 45.448 893.776 47.4636C894.193 49.4844 893.839 51.5157 892.786 53.0417C892.464 53.5105 892.583 54.1459 893.057 54.4688C893.234 54.5938 893.437 54.6511 893.635 54.6511Z" fill="#6D9826"/>
<path d="M700.818 83.3543C701.323 83.3543 701.766 82.9845 701.838 82.4741C701.922 81.9116 701.526 81.3907 700.963 81.3126C700.969 81.297 700.932 81.1095 700.995 80.8386C701.078 80.5313 701.25 80.2657 701.443 80.1616C701.937 79.8959 702.573 79.8126 703.245 79.7188C703.896 79.6251 704.578 79.5313 705.266 79.2657C706.854 78.6407 707.828 77.3438 708.771 76.0938C709.38 75.2709 709.969 74.4897 710.682 73.9532C713.187 72.0886 716.911 73.2813 720.229 74.7136C720.708 74.9116 721.234 74.7501 721.51 74.3126C722.885 72.1459 724.276 70.073 726.187 68.6616C728.198 67.1928 730.672 66.7397 732.479 67.5261C733.479 67.9584 734.323 68.9168 734.667 70.0261C734.812 70.4793 734.859 70.9324 734.823 71.3543C734.661 71.7761 734.505 72.2136 734.354 72.6668C734.193 73.1616 734.427 73.698 734.901 73.9116C735.391 74.1355 735.937 73.9636 736.213 73.5209C736.526 73.0105 736.734 72.448 736.828 71.8595C737.875 69.1824 739.25 67.073 740.922 65.573C743.255 63.4897 746.276 62.573 748.891 63.2136C751.677 63.8907 753.766 66.5366 753.542 69.1095C753.495 69.6772 753.922 70.172 754.484 70.2188C755.062 70.2761 755.547 69.8491 755.599 69.2866C755.906 65.6876 753.172 62.1407 749.37 61.2136C746.146 60.4324 742.37 61.5157 739.547 64.0418C738.26 65.1928 737.146 66.6407 736.198 68.3647C735.552 67.1511 734.526 66.172 733.302 65.6407C730.776 64.5574 727.604 65.0834 724.963 67.0105C722.995 68.4636 721.573 70.4116 720.239 72.4845C716.766 71.0678 712.578 69.9636 709.453 72.3074C708.495 73.0209 707.797 73.9584 707.12 74.8595C706.318 75.9324 705.562 76.9428 704.51 77.3543C704.057 77.5313 703.526 77.6043 702.958 77.6772C702.177 77.7866 701.286 77.9116 700.463 78.3595C699.26 79.0105 698.745 80.5313 698.943 81.6199C699.114 82.5574 699.771 83.2136 700.672 83.3438C700.724 83.3491 700.771 83.3543 700.818 83.3543Z" fill="#6D9826"/>
<path d="M569.219 86.323C570.099 86.323 570.979 85.9896 571.76 85.349C573.193 84.1719 573.932 82.2448 573.615 80.5417C573.036 77.4688 570.281 75.6094 568.073 74.5834C562.687 72.1094 556.385 71.9688 550.901 74.1719C549.922 70 546.193 66.6094 541.875 66.1875C537.661 65.7917 533.443 68.2448 531.594 71.9844C528.385 68.9427 524.021 67.1719 519.583 67.1719C519.484 67.1719 519.396 67.1719 519.302 67.1719C517.943 67.198 516.104 67.6407 515.016 68.8177C514.422 69.4636 514.135 70.2552 514.187 71.0938C514.276 72.3542 515.099 73.2813 515.963 74.0886C518.505 76.4323 521.333 78.4323 524.391 80.0365C524.896 80.3177 525.516 80.1094 525.781 79.6094C526.047 79.1094 525.854 78.4844 525.354 78.224C522.453 76.698 519.766 74.8021 517.365 72.5782C516.807 72.0573 516.281 71.5 516.245 70.9532C516.224 70.6823 516.318 70.448 516.526 70.2136C517.052 69.6563 518.198 69.25 519.333 69.2292C523.713 69.1667 528.255 71.1407 531.182 74.5365C531.432 74.823 531.818 74.9584 532.177 74.8698C532.547 74.7865 532.844 74.5105 532.953 74.1511C533.995 70.5105 538.016 67.8386 541.672 68.2344C545.443 68.6042 548.76 71.9688 549.068 75.7344C549.099 76.0677 549.292 76.3698 549.583 76.5365C549.88 76.7188 550.24 76.724 550.536 76.573C555.755 74.0834 561.969 74.0417 567.203 76.448C568.656 77.1198 571.156 78.5938 571.594 80.9167C571.771 81.875 571.297 83.073 570.453 83.7657C570.104 84.0469 569.422 84.448 568.682 84.1615C568.177 83.9584 567.557 84.2084 567.349 84.7396C567.141 85.2657 567.396 85.8646 567.927 86.073C568.344 86.2396 568.786 86.323 569.219 86.323Z" fill="#6D9826"/>
<path d="M399.833 115.276C399.964 115.276 400.099 115.25 400.229 115.193C400.76 114.979 401 114.375 400.781 113.849C399.823 111.563 400.411 108.63 402.172 106.886C403.698 105.37 406.151 104.75 408.219 105.25C408.604 105.453 409.016 105.583 409.448 105.63C409.979 105.651 410.438 105.37 410.563 104.88C410.693 104.386 410.443 103.87 409.969 103.672C409.656 103.531 409.344 103.422 409.016 103.328C408.719 103.125 408.526 102.839 408.411 102.641C408.01 101.927 407.943 101.026 408.25 100.354C408.943 98.8491 410.792 98.1512 412.323 98.1303C414.193 98.1772 416.016 98.797 417.792 99.4741C419.641 100.182 421.724 100.974 423.943 100.974C424.328 100.943 424.698 100.802 424.896 100.469C425.073 100.151 425.083 99.7657 424.906 99.448C424.182 98.172 424.609 96.8439 424.922 96.172C425.635 94.6303 427.167 93.3959 428.734 93.0887C432.38 92.3907 435.776 94.797 437.526 96.2866C437.958 96.6668 438.604 96.6095 438.974 96.172C439.344 95.7397 439.297 95.0939 438.859 94.7241C435.365 91.7345 431.604 90.4272 428.344 91.073C426.13 91.5001 424.047 93.1616 423.047 95.3074C422.51 96.4793 422.323 97.6772 422.521 98.7918C421.167 98.5626 419.833 98.0522 418.531 97.5574C416.698 96.8647 414.63 96.073 412.438 96.073C412.391 96.073 412.344 96.073 412.292 96.073C409.63 96.1095 407.307 97.4585 406.375 99.5053C405.896 100.573 405.88 101.875 406.328 103.026C404.255 103.125 402.214 103.953 400.724 105.422C398.354 107.771 397.599 111.568 398.885 114.646C399.047 115.037 399.432 115.276 399.833 115.276Z" fill="#6D9826"/>
<mask id="mask1_15_25" style="mask-type:luminance" maskUnits="userSpaceOnUse" x="0" y="3" width="741" height="140">
<path d="M0 3.84375H740.828V142.51H0V3.84375Z" fill="white"/>
</mask>
<g mask="url(#mask1_15_25)">
<path d="M740.828 142.385H0C3.74479 136.672 10.0365 133.354 16.0417 127.495C24.0313 119.729 29.8958 109.635 36.4688 100.245C38.5885 95.8697 41.4167 91.8489 44.9479 88.5312C46.0781 87.4687 47.2135 86.4843 47.9896 85.2135C48.6979 83.8697 48.9792 82.177 48.2031 80.9062C48.6979 79.9895 49.8958 79.7083 50.9583 79.776C52.0885 79.8489 53.1458 80.0572 54.1354 79.5676C55.125 79.1405 55.6198 77.6614 54.776 77.026H56.4688C56.401 75.401 56.0469 73.8489 55.3385 72.4374C56.8229 73.3541 58.3073 74.203 59.8594 75.1197C67.4271 68.4843 75.4844 62.3437 83.9635 56.9062C85.0208 56.203 86.224 55.5676 87.3542 54.8593C84.1042 49.427 81.4167 43.6405 79.5104 37.6353C83.4688 42.8593 88.625 47.1666 94.3542 50.4114C92.9375 45.828 91.6667 41.2395 90.6771 36.578C93.224 40.5312 95.7656 44.5572 98.3125 48.5103C100.005 47.5885 101.771 46.7447 103.542 45.828C103.823 35.802 103.401 25.7812 100.573 16.2499C106.297 23.6614 110.964 31.9895 114.354 40.7447C121.281 37.7083 128.208 34.953 135.417 32.6978C147.146 28.8853 159.094 26.1353 171.25 24.1562C171.25 22.4635 171.104 20.7708 171.25 19.0728C172.026 20.7708 173.229 22.3228 174.568 23.5937C174.854 22.9583 175.063 22.3228 175.349 21.7551C175.557 22.3228 175.844 22.8176 176.198 23.3801C176.547 23.3072 176.833 23.2395 177.188 23.2395C178.667 21.8958 180.224 20.5572 181.922 19.5676C181.922 20.5572 181.99 21.6145 181.99 22.6041C201.146 20.276 220.578 19.9895 239.943 21.3333C240.229 17.026 241.146 12.7239 242.911 8.69784C242.349 13.0051 242.703 17.3801 243.479 21.6874C243.76 21.6874 243.974 21.6874 244.255 21.7551C244.609 19.4999 244.964 17.2395 245.318 14.9791C245.672 17.3072 246.094 19.6405 246.448 21.8958C246.802 21.9687 247.151 21.9687 247.505 22.0364C249.979 16.4635 252.031 10.8176 253.583 4.95825C254.646 10.3228 254.927 15.828 254.573 21.2603C261.573 12.0155 272.526 5.66138 284.12 4.677C276.063 6.58325 270.052 13.7083 267.578 21.6145C267.224 22.5312 267.156 23.453 266.943 24.3697C277.401 25.9895 287.792 27.9687 298.109 30.3697C298.323 29.802 298.604 29.2395 298.958 28.7447C299.031 29.453 299.313 30.0833 299.667 30.7916C300.302 30.9322 301.01 31.0728 301.714 31.2135C302.422 30.9322 303.13 30.651 303.833 30.3697C304.047 30.2968 304.26 30.2291 304.474 30.2968C304.969 30.4374 304.969 31.0728 304.896 31.5676V32.0624C305.391 32.203 305.813 32.3437 306.307 32.4843C308.854 32.276 311.469 31.9218 313.943 31.2864C313.521 32.276 313.521 33.401 313.802 34.5312C330.198 39.052 346.313 44.3437 362.214 50.4843C361.651 44.5572 361.083 38.5572 360.448 32.6249C363.557 36.7916 366.172 41.1666 368.719 45.6874C369.563 40.1093 370.839 34.5312 372.672 29.1666C372.109 37.1458 372.25 45.1197 372.818 53.0989C380.448 38.9791 394.021 28.0364 409.635 24.0155C398.469 31.6405 390.13 43.0728 385.75 55.7812C389.495 52.3228 393.948 49.4947 398.755 47.6614C395.292 51.8228 392.677 56.6249 390.979 61.776C407.729 67.776 425.188 70.953 442.786 71.3072C443.281 70.2499 443.635 69.1197 443.563 67.9895C444.479 69.0468 445.328 70.177 446.177 71.2343H447.167C447.875 69.6145 448.583 68.0624 449.286 66.4374C449.5 68.2708 450.417 69.8228 451.62 71.1666H452.328C453.031 70.3905 453.74 69.6145 454.375 68.7655C454.516 69.6145 454.87 70.3905 455.224 71.1666C456.073 71.0937 456.849 70.953 457.698 70.8853C459.677 68.9062 461.443 66.7187 462.859 64.3176C464.344 66.7916 466.813 68.6249 469.5 69.7551C479.536 68.3437 489.432 66.1562 499.188 63.0468C499.396 62.9791 499.609 62.9062 499.823 62.8385C510.844 59.3801 522.224 56.3437 533.677 54.0155C532.333 46.4635 531.552 38.9114 531.484 31.2135C533.323 37.7083 536.146 43.7812 539.823 49.427C539.609 47.0989 539.542 44.8385 539.682 42.578C541.943 44.9791 543.922 47.5885 545.688 50.3437C546.609 48.651 547.526 46.953 548.448 45.3333C548.375 47.3072 548.375 49.3541 548.302 51.401C549.151 51.2603 549.932 51.1197 550.708 51.0468C551.411 46.953 551.979 42.9322 552.12 38.7655C553.391 42.578 554.526 46.4635 555.583 50.3437C561.875 49.6353 568.094 49.2864 574.385 49.1458C574.88 48.651 575.443 48.0833 576.01 47.5885C576.859 48.1562 577.776 48.578 578.698 48.9999C579.26 48.651 579.823 48.2239 580.318 47.8749C580.318 48.2968 580.464 48.7187 580.531 49.0728C582.229 49.1458 583.927 49.0728 585.62 49.1458C585.198 48.0833 584.771 47.0989 584.349 46.0364C585.198 47.3072 586.188 48.3645 587.318 49.2864C587.953 49.3541 588.661 49.427 589.37 49.4947C589.578 49.2864 589.719 49.1458 589.932 48.9999C590.354 48.7187 590.849 48.3645 591.344 48.4374C591.984 48.5103 592.266 49.1458 592.547 49.7083C599.542 50.3437 606.469 51.2603 613.328 52.8124C627.464 56.1301 640.75 61.5676 653.469 68.3437C653.609 67.9218 653.896 67.6353 654.104 67.2864C654.813 61.427 653.609 55.2135 649.583 50.9791C653.469 53.5208 656.156 57.6145 657.359 62.0624C660.536 57.3333 664 52.8124 667.464 48.3645C663.932 55.7083 661.74 63.6822 660.964 71.802C662.589 69.9687 664.214 68.0624 665.839 66.1562C664.849 68.6249 663.859 71.0937 662.943 73.6353C663.297 73.8489 663.578 74.0624 663.932 74.203C667.745 70.8853 671 66.8593 673.474 62.4114C671.635 67.1405 669.516 71.7291 667.182 76.2499C671.422 78.8593 675.594 81.6822 679.76 84.5051C680.682 83.5208 681.672 82.5312 682.661 81.5416C682.516 83.3072 682.87 85.0728 683.365 86.7655C683.792 85.9895 684.146 85.2812 684.568 84.5051C684.568 85.776 684.708 86.9791 684.922 88.177C685.135 88.3176 685.344 88.4583 685.557 88.6718C686.547 88.177 687.677 87.8228 688.807 87.6822C688.172 88.3176 687.604 89.0937 687.042 89.7291C698.703 98.2708 709.943 107.448 720.964 116.552C729.448 123.542 738.635 132.01 740.828 142.385Z" fill="#93C808"/>
</g>
<path d="M86.3021 101.031C86.2135 101.031 86.1146 101.021 86.0208 100.99C84.8958 100.672 83.6302 100.708 82.3385 100.771C81.2865 100.802 80.2083 100.849 79.0885 100.698C77.2812 100.448 75.474 99.3125 74.6042 97.875C73.9844 96.8542 73.849 95.7135 74.2187 94.6667C74.8281 92.9896 76.4531 92.1563 77.6198 91.6719C80.2865 90.5521 83.1562 89.9531 86.0781 90.0677C84.9115 86.8229 85.8854 82.875 88.6146 80.6927C91.4115 78.4635 95.5833 78.4323 98.5052 80.3854C98.9635 78.8594 99.5104 77.4687 100.385 76.1979C101.812 74.1146 103.943 72.8698 106.078 72.8698H106.083C107.411 72.875 108.771 73.4635 109.724 74.4375C109.901 74.6198 110.062 74.8125 110.198 75.0104C111.703 72.7292 113.646 70.7396 115.906 69.1875C117.948 67.7812 119.839 67.0625 121.677 66.9844C124.115 66.8698 126.437 68.1094 127.411 70.0312C128.005 71.1771 128.062 72.6146 127.552 73.875C127.104 75.0104 126.276 75.8385 125.229 76.2083C124.703 76.401 124.104 76.1146 123.911 75.5833C123.729 75.0469 124.01 74.4635 124.542 74.2708C125.193 74.0417 125.51 73.4479 125.641 73.1198C125.922 72.4167 125.896 71.5885 125.578 70.9635C124.859 69.5573 123.021 68.9896 121.76 69.0365C120.318 69.0937 118.792 69.6979 117.078 70.8802C114.458 72.6823 112.323 75.1146 110.875 77.9323C110.656 78.3646 110.214 78.5885 109.703 78.4583C109.245 78.3437 108.922 77.9167 108.927 77.4427C108.948 76.8958 108.703 76.3385 108.245 75.8698C107.682 75.2917 106.854 74.9271 106.083 74.9271C106.078 74.9271 106.078 74.9271 106.078 74.9271C104.365 74.9271 102.885 76.1823 102.073 77.3594C101.099 78.7812 100.583 80.5104 100.062 82.4635C99.9687 82.8229 99.6771 83.1042 99.3125 83.1927C98.9531 83.2708 98.5677 83.1667 98.3177 82.901C96.2292 80.6667 92.2969 80.3906 89.901 82.2969C87.5156 84.2083 86.9271 88.1042 88.6458 90.6302C88.875 90.9635 88.8802 91.3958 88.6823 91.7396C88.4635 92.0833 88.0833 92.3385 87.6823 92.2292C84.4896 91.901 81.3229 92.349 78.4167 93.5677C77.1198 94.1042 76.4062 94.6667 76.1562 95.3594C75.9948 95.8229 76.0573 96.3125 76.3646 96.8125C76.9219 97.7344 78.1562 98.4948 79.3698 98.6615C80.3021 98.7865 81.2552 98.75 82.2604 98.7135C83.6562 98.6458 85.125 98.6042 86.5833 99.0156C87.1302 99.1667 87.4427 99.7344 87.2917 100.281C87.1615 100.734 86.75 101.031 86.3021 101.031Z" fill="#6D9826"/>
<path d="M186.354 58.2292C186.026 58.2292 185.703 58.073 185.505 57.7813C184.146 55.7969 183.672 53.1876 184.203 50.6251C184.74 48.0626 186.219 45.8542 188.271 44.573C190.313 43.2917 192.932 42.9219 195.495 43.573C197.536 44.0938 199.328 45.2136 200.578 46.7188C202.401 44.6667 204.786 42.323 207.901 41.5938C210.036 41.0938 212.521 41.7136 214.224 43.1719C215.052 43.8855 215.615 44.7292 215.906 45.6459C223.094 41.849 232.464 42.7084 238.781 47.9323C239.219 48.2969 239.281 48.9428 238.922 49.3803C238.542 49.8178 237.906 49.8751 237.464 49.5157C231.526 44.5938 222.12 44.0261 215.625 48.1876C215.302 48.4011 214.875 48.4063 214.536 48.2032C214.203 48.0001 214.016 47.6303 214.042 47.2396C214.135 46.073 213.464 45.2292 212.885 44.7344C211.688 43.7032 209.875 43.2448 208.365 43.5938C205.609 44.2396 203.516 46.4532 201.26 49.0626C201.036 49.3126 200.703 49.4167 200.385 49.4167C200.047 49.3803 199.75 49.1876 199.589 48.9011C198.661 47.2865 196.99 46.073 194.99 45.5678C192.995 45.0573 190.932 45.3334 189.365 46.3178C187.786 47.2969 186.635 49.0261 186.219 51.0417C185.802 53.0626 186.156 55.0938 187.208 56.6199C187.531 57.0886 187.411 57.7292 186.938 58.0469C186.76 58.1719 186.557 58.2292 186.354 58.2292Z" fill="#6D9826"/>
<path d="M379.177 86.9322C378.667 86.9322 378.224 86.5624 378.156 86.052C378.073 85.4895 378.469 84.9687 379.031 84.8905C379.021 84.8801 379.063 84.6874 379 84.4166C378.917 84.1093 378.74 83.8489 378.547 83.7447C378.057 83.4739 377.422 83.3905 376.745 83.2968C376.094 83.203 375.411 83.1145 374.729 82.8437C373.141 82.2187 372.167 80.927 371.224 79.6718C370.615 78.8489 370.026 78.0728 369.313 77.5312C366.802 75.6666 363.083 76.8645 359.76 78.2916C359.286 78.4947 358.755 78.328 358.484 77.8957C357.109 75.7239 355.719 73.651 353.807 72.2447C351.797 70.7707 349.318 70.3176 347.51 71.1041C346.516 71.5416 345.672 72.4947 345.323 73.6041C345.182 74.0624 345.13 74.5103 345.172 74.9322C345.333 75.3593 345.484 75.7968 345.641 76.2447C345.797 76.7395 345.568 77.276 345.094 77.4947C344.604 77.7135 344.057 77.5468 343.781 77.0989C343.469 76.5885 343.26 76.026 343.161 75.4374C342.12 72.7655 340.745 70.651 339.073 69.151C336.74 67.0676 333.719 66.151 331.104 66.7916C328.312 67.4687 326.224 70.1145 326.453 72.6874C326.5 73.2551 326.073 73.7499 325.51 73.802C324.932 73.8541 324.448 73.4322 324.391 72.8645C324.089 69.2655 326.818 65.7187 330.625 64.7916C333.844 64.0155 337.625 65.0989 340.448 67.6197C341.729 68.776 342.849 70.2187 343.797 71.9426C344.443 70.7291 345.469 69.7499 346.693 69.2187C349.214 68.1353 352.391 68.6614 355.026 70.5885C356.995 72.0416 358.422 73.9895 359.755 76.0624C363.229 74.6457 367.417 73.5416 370.542 75.8853C371.5 76.6041 372.198 77.5364 372.875 78.4426C373.677 79.5103 374.432 80.5207 375.484 80.9322C375.938 81.1093 376.469 81.1822 377.036 81.2603C377.818 81.3645 378.708 81.4895 379.526 81.9374C380.734 82.5885 381.25 84.1093 381.047 85.1978C380.88 86.1353 380.219 86.7916 379.318 86.9218C379.271 86.9322 379.224 86.9322 379.177 86.9322Z" fill="#6D9826"/>
<path d="M510.771 89.9011C509.896 89.9011 509.01 89.573 508.234 88.9271C506.802 87.7552 506.063 85.823 506.375 84.1198C506.953 81.0469 509.714 79.1875 511.922 78.1615C517.307 75.6927 523.609 75.5521 529.094 77.75C530.073 73.5782 533.802 70.1875 538.12 69.7657C542.333 69.3698 546.552 71.823 548.401 75.5677C551.609 72.5209 555.974 70.75 560.412 70.75C560.505 70.75 560.594 70.7552 560.693 70.7552C562.052 70.7761 563.891 71.224 564.974 72.4011C565.573 73.0469 565.859 73.8334 565.802 74.6771C565.714 75.9375 564.896 76.8594 564.026 77.6667C561.49 80.0105 558.656 82.0105 555.604 83.6198C555.099 83.9011 554.479 83.6875 554.214 83.1875C553.948 82.6875 554.141 82.0625 554.641 81.8021C557.542 80.2761 560.224 78.3802 562.63 76.1563C563.182 75.6407 563.714 75.0782 563.745 74.5365C563.771 74.2605 563.672 74.0261 563.464 73.7917C562.943 73.2344 561.792 72.8282 560.662 72.8073C556.281 72.7448 551.734 74.7188 548.813 78.1146C548.563 78.4011 548.177 78.5365 547.813 78.448C547.443 78.3698 547.146 78.0886 547.042 77.7292C546 74.0886 541.979 71.4219 538.318 71.8125C534.552 72.1823 531.229 75.5469 530.927 79.3125C530.891 79.6459 530.698 79.948 530.411 80.1198C530.115 80.2969 529.75 80.3021 529.453 80.1563C524.24 77.6615 518.021 77.6198 512.792 80.0261C511.333 80.698 508.833 82.1719 508.401 84.4948C508.224 85.4584 508.698 86.6511 509.542 87.3438C509.891 87.625 510.573 88.0313 511.313 87.7396C511.818 87.5365 512.438 87.7865 512.646 88.3177C512.854 88.8438 512.599 89.4427 512.068 89.6511C511.651 89.8177 511.208 89.9011 510.771 89.9011Z" fill="#6D9826"/>
<path d="M680.162 118.854C680.031 118.854 679.896 118.828 679.766 118.776C679.234 118.557 678.995 117.953 679.208 117.427C680.167 115.141 679.583 112.208 677.823 110.464C676.292 108.948 673.839 108.328 671.776 108.828C671.391 109.031 670.979 109.161 670.547 109.214C670.016 109.234 669.557 108.953 669.427 108.458C669.297 107.964 669.547 107.448 670.021 107.25C670.339 107.115 670.651 107 670.979 106.906C671.276 106.703 671.469 106.417 671.583 106.224C671.984 105.505 672.047 104.609 671.745 103.932C671.052 102.427 669.203 101.729 667.667 101.708C665.802 101.755 663.979 102.375 662.203 103.052C660.354 103.76 658.271 104.557 656.052 104.557C655.667 104.521 655.297 104.38 655.094 104.047C654.917 103.729 654.912 103.344 655.089 103.026C655.813 101.75 655.385 100.427 655.073 99.75C654.354 98.2083 652.828 96.974 651.26 96.6667C647.609 95.9687 644.219 98.3802 642.469 99.8646C642.031 100.245 641.391 100.187 641.021 99.75C640.651 99.3229 640.698 98.6719 641.13 98.3021C644.63 95.3177 648.391 94.0052 651.646 94.651C653.865 95.0781 655.948 96.7396 656.943 98.8854C657.484 100.057 657.667 101.255 657.474 102.37C658.823 102.141 660.162 101.635 661.464 101.135C663.297 100.443 665.359 99.6562 667.557 99.6562C667.604 99.6562 667.651 99.6562 667.698 99.6562C670.359 99.6927 672.682 101.036 673.615 103.083C674.099 104.156 674.115 105.453 673.662 106.609C675.74 106.703 677.781 107.536 679.266 109.005C681.641 111.349 682.396 115.146 681.109 118.224C680.948 118.615 680.563 118.854 680.162 118.854Z" fill="#6D9826"/>
</svg>
