<svg width="722" height="1051" viewBox="0 0 722 1051" fill="none" xmlns="http://www.w3.org/2000/svg">
<mask id="mask0_10_13" style="mask-type:luminance" maskUnits="userSpaceOnUse" x="0" y="0" width="722" height="785">
<path d="M0 0H722V784.432H0V0Z" fill="white"/>
</mask>
<g mask="url(#mask0_10_13)">
<path d="M721.984 380.698C721.984 281.052 641.255 200.078 541.359 200.078H540.349C541.109 193.771 541.359 187.464 541.359 180.906C541.359 81.2604 460.635 0.28125 360.74 0.28125C261.094 0.28125 180.115 81.0052 180.115 180.906C180.115 187.464 180.37 193.771 181.125 200.078H180.115C80.724 200.328 0 281.052 0 380.698C0 454.615 44.3958 517.932 107.969 545.932C86.2708 571.161 72.901 603.953 72.901 639.776C72.901 719.24 137.484 783.818 216.948 783.818C296.411 783.818 360.99 719.24 360.99 639.776C360.99 719.24 425.573 783.818 505.036 783.818C584.5 783.818 649.078 719.24 649.078 639.776C649.078 603.953 635.708 571.161 614.01 545.932C677.583 518.182 721.984 454.615 721.984 380.698ZM362 361.526H360.99C360.99 361.526 360.234 361.526 359.979 361.526H360.99C360.99 361.526 361.745 361.526 362 361.526Z" fill="#41671B"/>
</g>
<mask id="mask1_10_13" style="mask-type:luminance" maskUnits="userSpaceOnUse" x="232" y="187" width="259" height="864">
<path d="M232.833 187.099H490.167V1051H232.833V187.099Z" fill="white"/>
</mask>
<g mask="url(#mask1_10_13)">
<path d="M485.104 590.839C480.057 585.792 472.24 585.792 467.193 590.839L377.385 680.646V347.651L429.354 295.688C434.401 290.641 434.401 282.823 429.354 277.776C424.307 272.729 416.49 272.729 411.443 277.776L377.385 311.833V200.328C377.385 193.266 371.839 187.719 364.776 187.719C357.708 187.719 352.161 193.266 352.161 200.328V573.177L254.786 475.552C249.74 470.505 241.922 470.505 236.875 475.552C231.828 480.599 231.828 488.417 236.875 493.464L352.161 608.75V1037.6C352.161 1044.66 357.708 1050.21 364.776 1050.21C371.839 1050.21 377.385 1044.66 377.385 1037.6V716.214L485.104 608.495C490.151 603.703 490.151 595.63 485.104 590.839Z" fill="#925F1C"/>
</g>
</svg>
