<svg width="930" height="272" viewBox="0 0 930 272" fill="none" xmlns="http://www.w3.org/2000/svg">
<path d="M0.0740832 172C-1.76092 222 30.5741 271.5 88.0741 271.5C151.856 268.526 187.462 190.846 156.88 124.221C156.438 123.257 155.305 122.815 154.324 123.219C145.636 126.797 140.322 129.2 132.476 135.613C131.83 136.141 131.593 137.025 131.861 137.815C148.374 186.494 128.058 239.979 82.4156 243.414C81.6119 243.474 80.8452 243.033 80.5089 242.3C58.0625 193.412 90.4388 111.303 198.113 97.719C199.119 97.5921 199.906 96.7362 199.906 95.7224V72.2829C199.906 71.0738 198.834 70.142 197.636 70.3041C167.845 74.3349 149.888 78.3536 135.951 84.3228C135.055 84.7067 134.008 84.4023 133.455 83.5992C126.62 73.6741 121.688 69.6713 113.186 62.5707C112.446 61.9523 111.363 61.9481 110.623 62.5678C103.026 68.9343 99.1485 72.9846 92.8214 80.5099C92.1256 81.3375 92.2179 82.5702 93.0278 83.2866L93.1227 83.3705C99.4934 89.0051 101.901 91.135 107.029 97.3218C107.774 98.2207 107.566 99.5774 106.612 100.25C56.7137 135.461 42.0778 182.039 41.4134 206.896C41.3533 209.144 37.9181 210.221 37.0138 208.162C31.8081 196.309 25.4147 175.406 30.5741 151.5C38.4663 114.932 66.8596 81.9332 160.302 3.57636C161.734 2.3753 160.931 0 159.062 0H118.344C117.848 0 117.371 0.184044 117.003 0.516447L82.4154 31.7873C81.6537 32.4759 80.4944 32.4759 79.7328 31.7873L45.1453 0.516447C44.7776 0.184043 44.2997 0 43.804 0H7.18938C5.36876 0 4.49503 2.23472 5.83283 3.46961L59.0527 52.5957C59.8843 53.3633 59.8964 54.6845 59.1034 55.492C13.3667 102.065 1.59927 130.442 0.0740832 172Z" fill="white"/>
<path d="M390.17 201.959C389.985 202.454 389.676 202.887 389.243 203.258C388.872 203.567 388.346 203.814 387.666 204C387.047 204.186 386.305 204.309 385.439 204.371C384.635 204.495 383.676 204.557 382.563 204.557C381.45 204.557 380.46 204.495 379.594 204.371C378.728 204.309 377.955 204.186 377.275 204C376.656 203.814 376.131 203.567 375.698 203.258C375.327 202.887 375.048 202.454 374.863 201.959L346.474 103.341H346.289L320.312 201.959C320.188 202.454 319.941 202.887 319.57 203.258C319.261 203.567 318.797 203.814 318.178 204C317.622 204.186 316.91 204.309 316.044 204.371C315.24 204.495 314.251 204.557 313.076 204.557C311.839 204.557 310.756 204.495 309.829 204.371C308.963 204.309 308.19 204.186 307.509 204C306.829 203.814 306.272 203.567 305.839 203.258C305.468 202.887 305.19 202.454 305.004 201.959L270.957 87.7549C270.647 86.7653 270.493 85.9922 270.493 85.4355C270.493 84.8789 270.678 84.446 271.049 84.1367C271.482 83.8275 272.101 83.6419 272.905 83.5801C273.771 83.4564 274.884 83.3945 276.245 83.3945C277.605 83.3945 278.688 83.4564 279.492 83.5801C280.296 83.6419 280.914 83.7656 281.347 83.9512C281.78 84.1367 282.058 84.3841 282.182 84.6934C282.368 85.0026 282.522 85.3737 282.646 85.8066L312.797 191.104H312.89L340.629 85.8066C340.753 85.3737 340.908 85.0026 341.093 84.6934C341.279 84.3841 341.588 84.1367 342.021 83.9512C342.516 83.7656 343.165 83.6419 343.969 83.5801C344.835 83.4564 345.948 83.3945 347.309 83.3945C348.361 83.3945 349.195 83.4564 349.814 83.5801C350.494 83.6419 351.02 83.7656 351.391 83.9512C351.824 84.1367 352.133 84.3841 352.319 84.6934C352.566 85.0026 352.752 85.3737 352.875 85.8066L383.12 191.104H383.305L412.714 85.8066C412.838 85.3737 412.962 85.0026 413.085 84.6934C413.271 84.3841 413.58 84.1367 414.013 83.9512C414.446 83.7656 415.034 83.6419 415.776 83.5801C416.518 83.4564 417.539 83.3945 418.837 83.3945C420.198 83.3945 421.28 83.4564 422.084 83.5801C422.889 83.7038 423.476 83.9202 423.847 84.2295C424.28 84.5387 424.497 84.9717 424.497 85.5283C424.558 86.085 424.466 86.8271 424.218 87.7549L390.17 201.959ZM508.178 155.851C508.178 158.077 507.591 159.623 506.416 160.489C505.24 161.293 504.096 161.695 502.983 161.695H445.742C445.742 166.891 446.236 171.591 447.226 175.797C448.278 180.003 449.978 183.621 452.329 186.651C454.679 189.62 457.74 191.909 461.513 193.517C465.286 195.125 469.925 195.929 475.429 195.929C479.326 195.929 482.82 195.589 485.913 194.908C489.005 194.228 491.665 193.486 493.891 192.682C496.18 191.816 498.035 191.043 499.458 190.362C500.942 189.682 501.993 189.342 502.612 189.342C502.983 189.342 503.323 189.435 503.632 189.62C503.942 189.806 504.189 190.115 504.375 190.548C504.56 190.919 504.684 191.414 504.746 192.032C504.869 192.651 504.931 193.424 504.931 194.352C504.931 194.785 504.9 195.217 504.838 195.65C504.777 196.021 504.684 196.393 504.56 196.764C504.498 197.073 504.375 197.382 504.189 197.691C504.003 198.001 503.756 198.31 503.447 198.619C503.138 198.928 502.179 199.485 500.571 200.289C498.963 201.031 496.86 201.804 494.262 202.608C491.665 203.351 488.634 204.031 485.17 204.649C481.769 205.268 478.089 205.577 474.13 205.577C467.636 205.577 461.884 204.618 456.875 202.701C451.865 200.722 447.659 197.846 444.257 194.073C440.856 190.239 438.258 185.507 436.464 179.879C434.733 174.251 433.867 167.726 433.867 160.304C433.867 153.191 434.764 146.821 436.557 141.192C438.413 135.564 441.041 130.802 444.443 126.905C447.845 122.947 451.927 119.947 456.689 117.906C461.513 115.803 466.863 114.752 472.739 114.752C479.047 114.752 484.428 115.803 488.881 117.906C493.334 120.009 496.984 122.854 499.829 126.441C502.736 129.967 504.838 134.08 506.137 138.78C507.498 143.481 508.178 148.429 508.178 153.624V155.851ZM496.767 152.604C496.953 143.697 494.912 136.739 490.644 131.729C486.376 126.72 480.161 124.215 471.997 124.215C467.791 124.215 464.08 125.019 460.864 126.627C457.709 128.173 455.019 130.245 452.792 132.843C450.628 135.44 448.958 138.471 447.783 141.935C446.608 145.336 445.927 148.893 445.742 152.604H496.767ZM627.485 102.599C627.485 104.392 627.392 105.938 627.207 107.237C627.083 108.536 626.866 109.588 626.557 110.392C626.31 111.134 625.97 111.66 625.537 111.969C625.166 112.278 624.702 112.433 624.145 112.433C623.341 112.433 622.042 111.876 620.249 110.763C618.455 109.649 616.074 108.443 613.105 107.145C610.136 105.846 606.58 104.64 602.436 103.526C598.354 102.413 593.592 101.856 588.149 101.856C582.335 101.856 577.078 102.877 572.377 104.918C567.677 106.897 563.657 109.742 560.317 113.453C556.977 117.102 554.41 121.524 552.617 126.72C550.823 131.853 549.926 137.543 549.926 143.79C549.926 150.655 550.823 156.716 552.617 161.974C554.472 167.169 557.039 171.529 560.317 175.055C563.595 178.58 567.522 181.24 572.099 183.033C576.738 184.827 581.84 185.724 587.407 185.724C590.128 185.724 592.819 185.414 595.478 184.796C598.138 184.177 600.611 183.25 602.9 182.013V154.181H580.17C579.057 154.181 578.191 153.5 577.573 152.14C576.954 150.717 576.645 148.336 576.645 144.996C576.645 143.264 576.707 141.811 576.831 140.636C577.016 139.461 577.264 138.533 577.573 137.853C577.882 137.11 578.253 136.585 578.686 136.275C579.119 135.904 579.614 135.719 580.17 135.719H620.712C621.702 135.719 622.568 135.904 623.31 136.275C624.114 136.585 624.794 137.079 625.351 137.76C625.97 138.44 626.433 139.275 626.743 140.265C627.052 141.192 627.207 142.275 627.207 143.512V191.29C627.207 193.146 626.866 194.785 626.186 196.207C625.568 197.568 624.238 198.65 622.197 199.454C620.218 200.258 617.744 201.093 614.775 201.959C611.806 202.825 608.714 203.567 605.498 204.186C602.343 204.804 599.127 205.268 595.849 205.577C592.633 205.886 589.386 206.041 586.108 206.041C576.521 206.041 567.924 204.68 560.317 201.959C552.771 199.176 546.37 195.187 541.113 189.991C535.856 184.734 531.835 178.364 529.052 170.88C526.269 163.334 524.877 154.799 524.877 145.274C524.877 135.44 526.362 126.627 529.331 118.834C532.299 110.979 536.505 104.33 541.948 98.8877C547.39 93.3831 553.946 89.1774 561.616 86.2705C569.347 83.3636 577.944 81.9102 587.407 81.9102C592.602 81.9102 597.333 82.2812 601.601 83.0234C605.869 83.7038 609.58 84.5697 612.734 85.6211C615.95 86.6107 618.61 87.693 620.712 88.8682C622.815 90.0433 624.269 91.0638 625.073 91.9297C625.939 92.7956 626.557 94.0326 626.928 95.6406C627.299 97.1868 627.485 99.5062 627.485 102.599ZM674.335 200.846C674.335 201.464 674.15 202.021 673.779 202.516C673.408 202.949 672.758 203.32 671.831 203.629C670.965 203.938 669.79 204.155 668.305 204.278C666.821 204.464 664.934 204.557 662.646 204.557C660.358 204.557 658.471 204.464 656.987 204.278C655.502 204.155 654.296 203.938 653.369 203.629C652.503 203.32 651.884 202.949 651.513 202.516C651.142 202.021 650.957 201.464 650.957 200.846V78.8486C650.957 78.2301 651.142 77.6735 651.513 77.1787C651.884 76.6839 652.503 76.2819 653.369 75.9727C654.296 75.6016 655.502 75.3232 656.987 75.1377C658.471 74.9521 660.358 74.8594 662.646 74.8594C664.934 74.8594 666.821 74.9521 668.305 75.1377C669.79 75.3232 670.965 75.6016 671.831 75.9727C672.758 76.2819 673.408 76.6839 673.779 77.1787C674.15 77.6735 674.335 78.2301 674.335 78.8486V200.846ZM781.396 158.634C781.396 165.685 780.468 172.117 778.613 177.931C776.757 183.744 773.943 188.754 770.17 192.96C766.398 197.166 761.666 200.413 755.976 202.701C750.286 204.99 743.637 206.134 736.03 206.134C728.67 206.134 722.268 205.113 716.826 203.072C711.383 201.031 706.868 198.062 703.281 194.166C699.694 190.27 697.034 185.476 695.302 179.786C693.57 174.096 692.705 167.602 692.705 160.304C692.705 153.253 693.632 146.821 695.488 141.007C697.405 135.131 700.25 130.121 704.023 125.978C707.796 121.772 712.496 118.525 718.125 116.236C723.815 113.948 730.463 112.804 738.071 112.804C745.493 112.804 751.925 113.824 757.368 115.865C762.81 117.844 767.294 120.782 770.82 124.679C774.407 128.575 777.067 133.368 778.798 139.059C780.53 144.749 781.396 151.274 781.396 158.634ZM757.368 159.562C757.368 155.479 757.028 151.738 756.347 148.336C755.729 144.872 754.646 141.873 753.1 139.337C751.554 136.801 749.482 134.822 746.884 133.399C744.348 131.977 741.132 131.266 737.236 131.266C733.772 131.266 730.742 131.915 728.144 133.214C725.546 134.451 723.413 136.306 721.743 138.78C720.073 141.192 718.805 144.13 717.939 147.594C717.135 150.995 716.733 154.892 716.733 159.283C716.733 163.365 717.073 167.138 717.753 170.602C718.434 174.003 719.516 176.972 721 179.508C722.547 182.044 724.619 184.023 727.216 185.445C729.814 186.806 733.03 187.486 736.865 187.486C740.39 187.486 743.452 186.868 746.049 185.631C748.647 184.332 750.781 182.477 752.451 180.064C754.121 177.652 755.358 174.745 756.162 171.344C756.966 167.88 757.368 163.953 757.368 159.562ZM926.215 117.906C926.215 118.587 926.123 119.422 925.937 120.411C925.751 121.401 925.411 122.823 924.917 124.679L902.836 199.547C902.527 200.598 902.125 201.464 901.63 202.145C901.136 202.763 900.362 203.258 899.311 203.629C898.321 204 896.868 204.247 894.951 204.371C893.095 204.495 890.652 204.557 887.622 204.557C884.591 204.557 882.117 204.464 880.2 204.278C878.282 204.155 876.767 203.907 875.654 203.536C874.602 203.165 873.829 202.67 873.334 202.052C872.84 201.371 872.469 200.536 872.221 199.547L858.305 149.264L858.12 148.429L857.934 149.264L845.131 199.547C844.884 200.598 844.513 201.464 844.018 202.145C843.585 202.763 842.812 203.258 841.699 203.629C840.585 204 839.07 204.247 837.153 204.371C835.236 204.495 832.762 204.557 829.731 204.557C826.639 204.557 824.134 204.464 822.216 204.278C820.361 204.155 818.876 203.907 817.763 203.536C816.712 203.165 815.939 202.67 815.444 202.052C814.949 201.371 814.578 200.536 814.331 199.547L792.436 124.679C791.879 122.885 791.508 121.493 791.323 120.504C791.199 119.452 791.137 118.587 791.137 117.906C791.137 117.288 791.292 116.762 791.601 116.329C791.972 115.834 792.591 115.463 793.457 115.216C794.384 114.907 795.59 114.69 797.075 114.566C798.621 114.443 800.538 114.381 802.827 114.381C805.301 114.381 807.311 114.443 808.857 114.566C810.403 114.69 811.609 114.907 812.475 115.216C813.341 115.525 813.929 115.958 814.238 116.515C814.609 117.009 814.887 117.628 815.073 118.37L831.494 179.137L831.679 180.25L831.865 179.137L847.265 118.37C847.451 117.628 847.729 117.009 848.1 116.515C848.533 115.958 849.152 115.525 849.956 115.216C850.76 114.907 851.873 114.69 853.295 114.566C854.78 114.443 856.666 114.381 858.955 114.381C861.243 114.381 863.098 114.474 864.521 114.659C865.944 114.783 867.057 114.999 867.861 115.309C868.727 115.556 869.314 115.927 869.624 116.422C869.995 116.855 870.273 117.381 870.458 117.999L886.972 179.229L887.25 180.25L887.436 179.137L903.208 118.37C903.331 117.628 903.579 117.009 903.95 116.515C904.321 115.958 904.939 115.525 905.805 115.216C906.671 114.907 907.846 114.69 909.331 114.566C910.815 114.443 912.701 114.381 914.99 114.381C917.278 114.381 919.134 114.443 920.556 114.566C922.041 114.69 923.185 114.907 923.989 115.216C924.855 115.463 925.442 115.834 925.751 116.329C926.061 116.762 926.215 117.288 926.215 117.906Z" fill="white"/>
</svg>
